<?xml version="1.0" standalone="no"?>
<!DOCTYPE svg PUBLIC "-//W3C//DTD SVG 20010904//EN"
 "http://www.w3.org/TR/2001/REC-SVG-20010904/DTD/svg10.dtd">
<svg version="1.0" xmlns="http://www.w3.org/2000/svg"
 width="499.000000pt" height="287.000000pt" viewBox="0 0 499.000000 287.000000"
 preserveAspectRatio="xMidYMid meet">
<metadata>
Created by potrace 1.15, written by Peter Selinger 2001-2017
</metadata>
<g transform="translate(0.000000,287.000000) scale(0.100000,-0.100000)"
fill="#000000" stroke="none">
<path d="M758 2855 c-34 -19 -51 -71 -43 -132 18 -128 75 -340 165 -617 l59
-179 -28 -56 c-30 -59 -81 -210 -81 -239 0 -15 -16 -17 -143 -18 -171 -2 -293
-29 -425 -95 -88 -44 -204 -142 -243 -205 -30 -50 -18 -52 21 -3 39 49 134
120 210 159 135 68 349 109 496 95 l74 -7 -6 -51 c-4 -29 -8 -53 -9 -54 -1 -2
-39 -9 -86 -18 -145 -25 -264 -75 -374 -158 -69 -51 -145 -141 -145 -170 0 -3
33 27 72 67 85 83 158 128 270 168 72 25 255 64 263 56 2 -2 8 -57 15 -123 33
-362 144 -619 359 -836 181 -182 439 -313 752 -382 197 -44 287 -52 569 -52
226 1 283 4 390 22 555 97 920 319 1133 688 92 159 145 338 167 565 6 63 12
115 13 116 7 8 178 -30 245 -54 113 -40 185 -85 271 -170 41 -40 75 -71 77
-69 10 10 -84 122 -137 165 -101 82 -269 154 -396 168 -29 4 -55 10 -57 13 -2
3 -7 29 -11 58 l-7 51 66 7 c134 15 354 -28 486 -95 76 -39 171 -110 210 -159
19 -23 35 -39 38 -37 10 11 -44 79 -108 139 -140 129 -335 198 -567 201 -122
1 -133 2 -133 20 0 30 -59 197 -90 253 l-28 53 30 76 c100 258 201 678 184
767 -15 78 -110 108 -232 72 -121 -35 -322 -148 -519 -291 -60 -44 -115 -83
-120 -86 -6 -4 -48 7 -94 23 -485 171 -1127 171 -1614 -1 -47 -16 -90 -30 -96
-30 -5 0 -40 23 -78 51 -193 146 -421 281 -550 325 -81 27 -173 31 -215 9z
m1102 -916 c183 -82 264 -349 167 -552 -102 -213 -311 -264 -465 -114 -157
152 -161 428 -9 595 81 88 206 117 307 71z m1515 -3 c148 -69 234 -271 194
-458 -25 -116 -114 -234 -205 -273 -50 -22 -148 -22 -198 0 -88 37 -172 145
-202 260 -64 236 94 495 301 495 42 0 75 -7 110 -24z m-710 -675 c81 -36 83
-75 7 -113 -66 -32 -214 -33 -285 -1 -72 33 -75 68 -9 106 67 40 207 44 287 8z
m-601 -269 c17 -19 54 -46 81 -60 43 -23 62 -27 140 -27 81 0 95 3 144 30 29
16 63 41 74 55 l22 26 22 -26 c12 -14 45 -39 75 -55 48 -27 62 -30 143 -30 78
0 97 4 140 27 54 28 103 75 129 123 15 26 16 27 10 5 -8 -33 -38 -82 -64 -105
-12 -11 -18 -25 -15 -36 8 -23 -11 -167 -32 -244 -23 -86 -73 -201 -117 -269
-36 -56 -38 -57 -56 -41 -32 29 -54 12 -46 -35 6 -36 3 -41 -27 -64 -45 -35
-84 -47 -144 -47 -78 0 -186 62 -176 101 7 28 -5 70 -21 70 -7 0 -19 -7 -26
-15 -11 -13 -16 -11 -38 21 -72 106 -138 295 -149 429 -6 67 -8 72 -55 122
-27 29 -55 68 -63 88 -20 45 -18 58 2 20 8 -16 29 -45 47 -63z"/>
<path d="M1668 1810 c-77 -42 -119 -126 -119 -237 0 -63 5 -85 28 -131 15 -31
45 -70 66 -87 35 -27 46 -30 112 -30 66 0 77 3 112 30 21 18 51 57 68 90 24
49 29 71 29 130 0 59 -5 81 -29 130 -43 85 -89 118 -168 122 -47 3 -71 -1 -99
-17z m193 -126 c74 -37 90 -149 30 -212 -120 -130 -319 43 -208 181 41 51 113
64 178 31z"/>
<path d="M3185 1815 c-83 -45 -128 -129 -128 -242 0 -59 5 -81 29 -129 16 -32
46 -72 67 -89 35 -27 46 -30 112 -30 66 0 77 3 112 30 21 17 51 57 67 89 24
48 29 70 29 131 0 61 -5 83 -29 131 -42 83 -88 117 -167 122 -43 2 -71 -2 -92
-13z m115 -136 c45 -26 70 -65 70 -114 0 -20 -7 -50 -17 -65 -19 -32 -80 -70
-113 -70 -33 0 -94 38 -113 70 -33 55 -17 130 37 170 48 36 84 38 136 9z"/>
</g>
</svg>
