<?xml version="1.0" encoding="UTF-8"?>
<svg width="106px" height="47px" viewBox="0 0 106 47" version="1.1" xmlns="http://www.w3.org/2000/svg" xmlns:xlink="http://www.w3.org/1999/xlink">
    <!-- Generator: Sketch 50.2 (55047) - http://www.bohemiancoding.com/sketch -->
    <title>Group</title>
    <desc>Created with Sketch.</desc>
    <defs></defs>
    <g id="Page-1" stroke="none" stroke-width="1" fill="none" fill-rule="evenodd">
        <g id="emencia" transform="translate(-57.000000, -56.000000)" fill="#377DFF" fill-rule="nonzero">
            <g id="Group" transform="translate(57.000000, 56.000000)">
                <polygon id="Shape" points="69.4529703 34.6217822 76.8985149 23.2905941 69.4529703 11.9826733"></polygon>
                <path d="M25.919802,17.7064356 C25.8965347,17.6831683 25.919802,17.7064356 25.8965347,17.6831683 C25.2217822,16.7990099 24.2678218,16.310396 23.3138614,16.310396 C22.0108911,16.310396 21.080198,16.7990099 20.2193069,17.6831683 C19.5445545,18.3579208 18.7069307,19.5212871 18.5673267,21.1034653 L24.2678218,21.1034653 C26.1757426,21.1034653 26.9668317,19.0559406 25.919802,17.7064356 Z" id="Shape"></path>
                <path d="M34.8079208,10.9123762 L40.089604,10.9123762 C42.0207921,10.9123762 43.6029703,12.4712871 43.6029703,14.4257426 C43.9985149,13.9138614 44.4405941,13.4019802 44.9292079,12.9133663 C45.4178218,12.4247525 45.9529703,11.9826733 46.5811881,11.610396 C47.1861386,11.2381188 47.8608911,10.9356436 48.5821782,10.7029703 C49.3034653,10.470297 50.1178218,10.3539604 51.0019802,10.3539604 C53.7009901,10.3539604 55.7950495,11.1683168 57.2841584,12.7970297 C58.7732673,14.4257426 59.5410891,16.6826733 59.5410891,19.5445545 L59.5410891,46.8836634 L81.7381188,46.8836634 C94.6282178,46.8836634 105.075248,36.4366337 105.075248,23.5465347 C105.075248,10.6564356 94.6282178,0.209405941 81.7381188,0.209405941 L69.4529703,0.209405941 L69.4529703,8.67871287 L60.5415842,8.67871287 L60.5415842,0.209405941 L23.360396,0.209405941 C10.470297,0.209405941 0.0232673267,10.6564356 0.0232673267,23.5465347 C0.0232673267,36.4366337 10.470297,46.8836634 23.360396,46.8836634 L50.699505,46.8836634 L50.699505,22.359901 C50.699505,20.9638614 50.3737624,19.940099 49.7455446,19.2188119 C49.1173267,18.5207921 48.279703,18.1485149 47.2326733,18.1485149 C46.1623762,18.1485149 45.3014851,18.4975248 44.6034653,19.2188119 C44.510396,19.3118812 44.4405941,19.4049505 44.3707921,19.4980198 C43.8589109,20.1960396 43.6029703,21.15 43.6029703,22.3366337 L43.6029703,31.4574257 C43.6029703,32.5277228 43.2306931,33.5049505 42.6024752,34.2727723 C41.7881188,35.2732673 40.5549505,35.9014851 39.1821782,35.9014851 C36.7391089,35.9014851 34.7846535,33.9237624 34.7846535,31.5039604 L34.8079208,10.9123762 Z M10.2143564,23.5232673 L10.2143564,23.430198 C10.2143564,21.6153465 10.5866337,19.9168317 11.1915842,18.3346535 C11.7965347,16.7524752 12.6806931,15.3564356 13.7975248,14.169802 C14.9143564,12.9831683 16.2405941,12.0524752 17.799505,11.3777228 C19.3351485,10.7029703 21.0336634,10.3539604 22.8717822,10.3539604 C25.0356436,10.3539604 26.8970297,10.7262376 28.4792079,11.4707921 C30.0613861,12.2153465 31.3876238,13.1925743 32.4113861,14.4490099 C32.4346535,14.4722772 32.4579208,14.4955446 32.4811881,14.5420792 C36.0643564,19.1257426 32.760396,25.8267327 26.9435644,25.8267327 L18.730198,25.8267327 C19.0792079,27.2227723 19.7074257,28.2465347 20.6381188,28.9212871 C21.5688119,29.5960396 22.7321782,29.9450495 24.1282178,29.9450495 C25.1519802,29.9450495 26.0826733,29.7589109 26.9435644,29.3633663 C27.2925743,29.200495 27.6415842,29.0143564 27.9905941,28.7584158 C29.0376238,28.060396 30.410396,28.0836634 31.3643564,28.8980198 L34.4356436,31.4341584 C33.2257426,32.969802 31.759901,34.2029703 29.9915842,35.1336634 C28.2232673,36.0643564 26.0826733,36.529703 23.5930693,36.529703 C21.6153465,36.529703 19.8237624,36.2039604 18.1950495,35.5757426 C16.5663366,34.9475248 15.1470297,34.0633663 13.9836634,32.9465347 C12.7970297,31.829703 11.8663366,30.4569307 11.2148515,28.8514851 C10.540099,27.2460396 10.1910891,25.4777228 10.2143564,23.5232673 Z M63.4965347,35.9014851 C61.8445545,35.9014851 60.5183168,34.5519802 60.5183168,32.9 L60.5183168,10.9123762 L74.9905941,10.9123762 C76.9217822,10.9123762 78.690099,11.9361386 79.6673267,13.5881188 L81.7613861,17.0782178 L84.2044554,13.029703 C84.9722772,11.75 86.3683168,10.9589109 87.8806931,10.9589109 L94.7212871,10.9589109 L86.5079208,23.2905941 L94.9074257,35.9247525 L87.950495,35.9247525 C86.4381188,35.9247525 85.0653465,35.1336634 84.2742574,33.8539604 L81.6683168,29.479703 L78.9925743,33.8306931 C78.2014851,35.110396 76.8287129,35.8782178 75.339604,35.8782178 L63.4965347,35.9014851 Z" id="Shape"></path>
            </g>
        </g>
    </g>
</svg>