<?xml version="1.0" encoding="utf-8"?>
<!-- Generator: Adobe Illustrator 19.2.1, SVG Export Plug-In . SVG Version: 6.00 Build 0)  -->
<svg version="1.1" id="layer" xmlns="http://www.w3.org/2000/svg" xmlns:xlink="http://www.w3.org/1999/xlink" x="0px" y="0px"
	 viewBox="0 0 652 652" style="enable-background:new 0 0 652 652;" xml:space="preserve">
<style type="text/css">
	.st0{fill:#EE0000;}
</style>
<path class="st0" d="M144.9,331.3c12.3,0,30-2.5,30-17.1c0-1.1-0.1-2.3-0.3-3.4l-7.3-31.7c-1.7-7-3.2-10.1-15.4-16.3
	c-9.5-4.9-30.2-12.9-36.4-12.9c-5.7,0-7.4,7.4-14.2,7.4c-6.6,0-11.4-5.5-17.5-5.5c-5.9,0-9.7,4-12.7,12.3c0,0-8.2,23.3-9.3,26.6
	c-0.2,0.6-0.2,1.3-0.2,1.9C61.6,301.6,97.2,331.2,144.9,331.3 M176.8,320.1c1.7,8,1.7,8.9,1.7,9.9c0,13.7-15.4,21.3-35.7,21.3
	c-45.9,0-86-26.8-86-44.6c0-2.5,0.5-4.9,1.5-7.2c-16.5,0.8-37.8,3.8-37.8,22.6c0,30.9,73.1,68.9,131.1,68.9
	c44.4,0,55.6-20.1,55.6-35.9C207.1,342.7,196.3,328.5,176.8,320.1"/>
<path d="M176.8,320.1c1.7,8,1.7,8.9,1.7,9.9c0,13.7-15.4,21.3-35.7,21.3c-45.9,0-86-26.8-86-44.6c0-2.5,0.5-4.9,1.5-7.2l3.6-8.9
	c-0.2,0.6-0.2,1.2-0.2,1.9c0,9,35.6,38.7,83.3,38.7c12.3,0,30-2.5,30-17.1c0-1.1-0.1-2.3-0.3-3.4L176.8,320.1z"/>
<path d="M588.5,340.4c0,11.7,7,17.3,19.8,17.3c3.9-0.1,7.8-0.7,11.7-1.6v-13.5c-2.4,0.8-5,1.2-7.5,1.1c-5.3,0-7.2-1.6-7.2-6.6v-20.7
	h15.3v-13.9h-15.3v-17.7l-16.7,3.6v14h-11.1v13.9h11V340.4z M536.5,340.7c0-3.6,3.6-5.4,9.1-5.4c3.3,0,6.7,0.4,9.9,1.2v7
	c-3.2,1.7-6.8,2.6-10.4,2.6C539.7,346.2,536.5,344.1,536.5,340.7 M541.6,357.9c5.9,0,10.6-1.2,15.1-4.2v3.3h16.5v-35
	c0-13.3-9-20.6-23.9-20.6c-8.4,0-16.6,2-25.5,6l6,12.3c6.4-2.7,11.8-4.3,16.5-4.3c6.9,0,10.4,2.7,10.4,8.1v2.7
	c-4-1-8.2-1.6-12.4-1.5c-14,0-22.5,5.9-22.5,16.4C521.8,350.7,529.4,358,541.6,357.9 M450.9,357h17.7v-28.3h29.7V357h17.8v-72.2
	h-17.7v27.7h-29.7v-27.7H451L450.9,357z M383.4,329.7c0-7.8,6.2-13.8,14.3-13.8c4.2-0.1,8.4,1.4,11.5,4.2v19.1
	c-3.1,2.9-7.3,4.5-11.5,4.4C389.7,343.5,383.4,337.6,383.4,329.7 M409.5,357.1H426v-75.8l-16.7,3.6v20.5c-4.2-2.4-9-3.7-13.9-3.6
	c-15.9,0-28.4,12.3-28.4,27.9c-0.2,15.3,12.1,27.9,27.4,28c0.2,0,0.3,0,0.5,0c5.3,0,10.4-1.6,14.6-4.7L409.5,357.1z M333.7,315.1
	c5.3,0,9.7,3.4,11.4,8.7h-22.8C324.1,318.3,328.2,315.1,333.7,315.1 M305.6,329.8c0,15.9,13,28.3,29.7,28.3c9.2,0,15.9-2.5,22.8-8.3
	l-11-9.8c-2.6,2.7-6.4,4.1-10.9,4.1c-5.8,0.2-11.2-3.3-13.4-8.7h38.9v-4.1c0-17.3-11.7-29.8-27.5-29.8
	c-15.5-0.2-28.2,12.1-28.4,27.6C305.6,329.3,305.6,329.6,305.6,329.8 M276.9,300c5.9,0,9.2,3.7,9.2,8.1c0,4.4-3.3,8.1-9.2,8.1h-17.5
	V300H276.9z M241.6,357h17.7v-26.3h13.5l13.6,26.3h19.9l-15.9-28.9c8.3-3.4,13.6-11.4,13.6-20.3c0-13-10.2-23-25.5-23h-37V357z"/>
</svg>
