<svg xmlns="http://www.w3.org/2000/svg" width="2500" height="2500" viewBox="0 0 192.756 192.756"><path fill-rule="evenodd" clip-rule="evenodd" fill="#fff" d="M0 0h192.756v192.756H0V0z"/><path d="M104.416 32.575c35.787 0 64.977 29.188 64.977 64.976 0 35.791-29.189 64.979-64.977 64.979-35.789 0-64.978-29.188-64.978-64.979 0-35.787 29.189-64.976 64.978-64.976z" fill-rule="evenodd" clip-rule="evenodd" fill="#cc2229"/><path d="M104.416 50.812c25.742 0 46.74 20.996 46.74 46.739 0 25.746-20.998 46.742-46.74 46.742-25.745 0-46.741-20.996-46.741-46.742 0-25.743 20.996-46.739 46.741-46.739z" fill-rule="evenodd" clip-rule="evenodd"/><path d="M152.023 108.629c1.947-.619 3.582-.811 5.566.701 2.893 2.203 6.738 5.846 11.092 5.695 1.568-.053 3.238-.312 3.238-1.965.002-3.17-5.672-5.387-6.766-8.143.441-.285 1.926-.662 2.539-.645 1.457-.168 6.395 1.445 9.889 1.316 1.973-.072 3.578-.414 3.699-2.494.182-3.092-2.893-4.684-6.559-5.867-4.289-1.386-9.414-2.022-11.449-2.506.818-1.995 3.018-3.989 4.979-5.837 1.896-1.633 7.197-4.03 7.268-7.005.051-2.06-1.533-2.36-3.207-2.462-3.521-.216-6.168.86-9.184 2.407-2.881 1.477-5.676 3.299-8.744 4.456-.799.279-2.178.445-3.549.458-1.459.015-2.908-.142-3.633-.518-1.416-.875-2.072-4.34-2.316-5.917-1.117-7.223-7.291-14.013-13.467-17.364-4.77-2.588-8.605-3.002-13.096-3.486-1.654-.178-3.352-.529-5.004-.616-.002-2-.953-3.95-1.521-5.868-.916-3.096-2.742-5.704-3.777-8.762-1.355-4.008.316-8.182-.949-12.316.479-.01 1.387-.334 1.402-.77.031-.831-.883-2.068-.41-2.288 5.123-1.171 7.889-1.77 9.613-4.649l-.002-.002c.254-.685.555-1.041.809-1.727.066-.783-.119-1.19-.482-1.341-1.189-.494-3.598.8-5.504.657a2.274 2.274 0 0 1-1.693-.894c-2.678-2.679-1.355-7.224-6.344-7.393-4.588-.156-9.728 2.492-12.728 5.554-.938 1.192-1.764.968-2.305.968-1.432.001-2.722-.164-3.95.126-1.794.424-3.382 1.329-4.829 3.09a5.745 5.745 0 0 1-1.178 1.089c-4.503 3.152-5.407 9.579-8.126 14.078-1.408 2.331-3.118 4.894-5.231 6.632-2.595 2.134-3.534 4.683-5.035 7.51-2.14 4.028-1.683 6.577-.07 10.345 1.235 1.738 1.548 3.319 2.193 5.569-3.208 2.23-7.744 5.59-9.61 9.007-2.137 3.916-6.479 5.661-9.528 8.671-1.097.786-2.395 1.773-3.491 2.559-4.869-2.471-9.61-5.26-14.62-7.55-1.458-.667-8.823-4.177-12.967-3.916-1.921.122-3.387 1.703-2.186 3.255 1.771 2.292 5.795 3.867 7.308 5.99-2.686 2.2-8.626 3.682-8.305 6.667.106.992 1.912 1.993 3.974 1.929 2.518-.077 4.649-.193 5.618.136-.053 2.224-3.153 3.888-4.377 5.605-.599.838-.776 1.729.015 2.781 1.404 1.967 7.718-.361 9.356-.859 1.816.854 6.223 4.137 8.098 3.842.667.146 1.402-.176 2.069-.027 3.556 1.572 5.034 5.746 8.872 6.488.774.15 1.469.482 2.187-.057 1.994-1.361 1.714-3.703.59-6.496 1.662-.506 4.24-1.168 5.624-2.168v.002c2.035-1.471 4.314-2.562 6.409-3.943 1.767-1.166 3.374-1.473 5.405-1.893.157 1.967.621 3.791 1.337 5.627.965 2.477 1.722 5.359 3.044 7.635 3.423 5.895 8.007 12.291 14.038 15.758l-.226.482-.48 1.02h.003c-.751 1.086-4.804 3.861-5.716 5.436 7.947 6.219 17.938 9.934 28.773 9.934 22.066 0 40.65-15.406 45.547-36.012l1.986.744.074-.463z" fill="#fff"/><path d="M85.316 50.319c.181-.608 1.884.987 3.123.883.415-.034.812-.27 1.042-.921.241-.687.579-1.07.849-1.053.212.014.282.977.061 1.765-.25.893-1.368 2.024-2.33 1.974-1.141-.059-3.044-1.644-2.745-2.648zm10.42-12.841c.156.421.128.903.044 1.978s-.986 2.533-1.642 2.495c-.656-.038-1.466-1.493-1.316-3.117.122-1.326.92-3.048 2.477-2.901.525.05 1.023.533 1.328 1.176.307.643.416 1.447.38 1.889-.014.18-.101.208-.148.213-.077.008-.14-.093-.248-.363-.182-.457-.353-1.167-.875-1.37zm-10.824-1.385c.189.311.365.653.365 1.729s-.849 2.885-1.519 2.908c-.669.023-1.628-1.379-1.628-3.042 0-1.358.601-3.178 2.246-3.178.539 0 1.089.445 1.459 1.069.371.625.555 1.424.531 1.883.001.161-.19.129-.234 0a4.4 4.4 0 0 0-.313-.571c-.248-.376-.584-.758-.907-.798zm1.215 22.622c1.386 0 2.517 1.678 2.517 3.734 0 2.057-1.131 3.734-2.517 3.734s-2.516-1.677-2.516-3.734c0-2.055 1.13-3.734 2.516-3.734zm-40.131 43.738c.646-.172-.033 2.17.062 2.607 1.719-.428 4.262-1.002 5.597-2.336 4.095-3.039 8.189-4.893 12.284-6.316.927-.174 5.53-.86 5.157.074-.542.584-1.932 1.107-3.252 1.363-.026 2.949.91 6.365 2.486 9.119 2.797 7.002 8.527 13.865 14.958 17.92 3.467 2.186 12.04 5.654 19.762 7.426 6.914 1.584 10.494 1.295 12.365 1.939.404 1.305-4.104.771-6.98.568-8.295-.588-21.086-5.172-24.553-7.002-1.162 2.758-4.755 5.014-6.918 6.979-.543.494-1.086.988-1.442.412-.724-1.17 4.935-4.908 5.837-6.213h-.003l.707-1.502c-6.031-3.467-10.615-9.863-14.038-15.758-1.322-2.275-2.079-5.158-3.044-7.635-.716-1.836-1.18-3.66-1.337-5.627-2.031.42-3.639.727-5.405 1.893-2.095 1.381-4.374 2.473-6.409 3.943v-.002c-1.384 1-3.961 1.662-5.624 2.168 1.125 2.793 1.404 5.135-.59 6.496-.718.539-1.413.207-2.187.057-3.837-.742-5.315-4.916-8.872-6.488-.667-.148-1.402.174-2.069.027-1.875.295-6.282-2.988-8.098-3.842-1.639.498-7.953 2.826-9.356.859-.791-1.053-.614-1.943-.015-2.781 1.224-1.717 4.324-3.381 4.377-5.605-.969-.329-3.101-.213-5.618-.136-2.062.064-3.868-.937-3.974-1.929-.321-2.986 5.62-4.468 8.305-6.667-1.512-2.124-5.537-3.699-7.308-5.99-1.201-1.553.265-3.134 2.186-3.255 4.144-.262 11.508 3.249 12.967 3.916 5.01 2.29 9.75 5.079 14.62 7.55 1.096-.786 2.395-1.773 3.491-2.559 3.049-3.01 7.391-4.755 9.528-8.671 1.866-3.417 6.402-6.776 9.61-9.007-.646-2.25-.958-3.831-2.193-5.569-1.612-3.768-2.07-6.317.07-10.345 1.5-2.827 2.44-5.375 5.035-7.51 2.113-1.739 3.823-4.302 5.231-6.632 2.719-4.499 3.623-10.926 8.126-14.078a5.745 5.745 0 0 0 1.178-1.089c1.446-1.761 3.034-2.666 4.829-3.09 1.228-.29 2.518-.125 3.95-.126.541 0 1.367.224 2.305-.968 3-3.062 8.14-5.71 12.728-5.554 4.988.169 3.666 4.714 6.344 7.393a2.277 2.277 0 0 0 1.693.894c1.906.143 4.314-1.151 5.504-.657.363.151.549.558.482 1.341-.254.686-.555 1.042-.809 1.727l.002.002c-1.725 2.879-4.49 3.478-9.613 4.649-.473.219.441 1.457.41 2.288-.016.436-.924.76-1.402.77 1.266 4.134-.406 8.308.949 12.316 1.035 3.058 2.861 5.666 3.777 8.762.568 1.917 1.52 3.868 1.521 5.868 1.652.087 3.35.438 5.004.616 4.49.484 8.326.898 13.096 3.486 6.176 3.351 12.35 10.141 13.467 17.364.244 1.578.9 5.043 2.316 5.917.725.375 2.174.532 3.633.518 1.371-.013 2.75-.179 3.549-.458 3.068-1.157 5.863-2.979 8.744-4.456 3.016-1.547 5.662-2.623 9.184-2.407 1.674.102 3.258.402 3.207 2.462-.07 2.976-5.371 5.372-7.268 7.005-1.961 1.848-4.16 3.843-4.979 5.837 2.035.484 7.16 1.12 11.449 2.506 3.666 1.184 6.74 2.775 6.559 5.867-.121 2.08-1.727 2.422-3.699 2.494-3.494.129-8.432-1.484-9.889-1.316-.613-.018-2.098.359-2.539.645 1.094 2.756 6.768 4.973 6.766 8.143 0 1.652-1.67 1.912-3.238 1.965-4.354.15-8.199-3.492-11.092-5.695-2.443-1.861-4.773-.676-7.391-.086-1.855.754-8.865.867-11.039.295-4.207 1.557-7.053 1.633-11.562 1.361-1.408-.592-2.186-1.666-2.164-2.846.051-2.791 3.393-6.467 4.877-7.867-2.018-1.707-3.568-2.281-4.289-5.054-.393-1.52.281-2.99.982-1.725.1.181.707.228.781.537v-.001c.732 2.787 2.119 3.408 3.877 5.246.893-.348.688-1.328 2.363-1.785.52-.078.562.49.264 1.039-.385.707-1.252 1.469-1.508 1.674-1.045.836-2.24 1.438-3.18 2.6-.623.771-2.418 3.328-2.316 4.258.148 1.342.896 1.801 1.812 2.033 4.439 1.131 10.375-.877 15.16-2.703.887-.34 1.797-1.059 2.523-.975.719.777-2.209 2.242-4.105 2.93 1.469.408 2.924.57 4.279.277 2.773-.602 5.318-2.145 8.168-1.951 4.305.293 7.637 6.799 12.82 7.211.064.004.127.008.189.01.936.027 1.695-.312 1.516-1.281-.613-3.309-6.379-6.527-7.289-7.828-.506-.723 4.412-1.723 5.119-1.742 3.02-.084 6.369 1.473 9.152 1.125 4.736-.594.561-4.746-1.705-5.359-3.555-.963-7.889-2.199-11.57-2.8-.098.929.129 2.181-.42 2.464-.855.012-1.066-1.514-1.133-3.041-.049-1.111 2.432-4.204 3.162-5.037a23.102 23.102 0 0 1 5.119-4.38c0-.668 5.465-2.844 2.689-4.387-3.393-1.793-7.771.911-10.771 2.492l-9.43 4.444c-1.459.439-2.01.677-3.436 1.205-1.289.438-.082-1.212-.008-1.688-1.369.038-3.133.218-4.678.386-2.297-.995-1.479-6.526-2.414-9-2.352-6.156-6.762-12.118-12.57-15.143-2.309-1.201-4.629-2.273-7.15-2.76-3.043-.586-6.309-.486-9.328-.891-.836 5.136-2.645 7.946-6.012 11.898-.488.574-.51.502-.637.387-.074-.068-.609.245-.154-.458 2.576-3.97 5.682-8.594 5.408-12.645-.246-3.624-1.189-6.302-3.018-9.517-.959-1.687-1.574-3.218-1.996-4.83-1.152-4.406.59-8.646-1.15-13.195-.258-1.996-1.879-3.834-2.281-5.014-.178-.523.357-.84.771-.337.797.967 1.348 2.319 2.145 3.286-.031-1.013.162-2.103.885-2.289.607-.156 1.527-.116 2.229-.454.697.176 7.965-2.461 7.58-4.503-.158-.84-3.098.507-3.77.595v.002a4.344 4.344 0 0 1-.324.012c-5.559-.003-4.424-7.652-8.635-7.975-.734-.056-1.584-.163-2.551.15-5.618.277-8.341 6.287-13.031 6.034-2.152-.116-4.745.3-6.243 2.083-.72.857-1.648 1.98-2.565 2.622-1.875 1.311-2.95 4.67-4.128 6.896-1.621 4.149-4.203 8.326-7.157 11.64-1.268 1.421-3.327 2.962-4.114 4.693-1.369 3.012-3.308 5.415-2.657 8.892.42 2.243 2.292 6.482 3.282 8.19.369.638 1.33 2.2 2.234 3.62.799 1.252 1.72 2.475.912 3.056-.364.262-2.119-2.712-3.907-3.901-2.239 1.57-4.157 3.273-6.272 4.96-2.299 1.833-3.274 4.537-5.417 6.596-1.602 1.536-3.271 2.941-5.118 4.172-1.83 1.219-3.407 3.104-5.285 4.236.459.191 3.182.756 2.824 1.483-.449.912-2.845.268-4.099-.132-1.99-.635-4.049-1.631-5.092-2.413-1.216-.658-11.946-6.579-12.565-6.88-2.989-1.453-7.095-2.81-9.117-2.869-.675-.021-1.148.015-1.322.449a.744.744 0 0 0-.134.831c.519 1.25 3.914 2.9 5.466 4.204.779.655 4.188 3.357 3.891 5.182-.137.841-2.421-1.159-3.125-1.981-1.162.696-2.55 1.615-3.705 2.324v-.003c-.391.241-3.436 2.084-3.171 2.479-.125 2.736 6.243 1.461 8.257 1.833 1.314.242 4.344 2.641 3.508 3.317-.221.158-.548-.201-.904-.393-.784-.42-1.706-1.086-1.932-1.129-.754 1.487-2.195 3.649-3.483 4.682-.055.045-.767.604-.74.656l.015.303c-.211.844.139 1.23.769 1.344 1.386.25 4.529-.682 5.632-1.076-.743-.816-.698-2.51.008-2.158 1.318.656 6.005 4.328 7.755 5.402.4-.584.362-1.273.816-1.461 1.362-.564 3.118 1.232 4.541 1.861 3.098 1.369 3.797 3.609 6.301 5.52.684.521 1.753.443 2.567.627 1.311-1.809.003-3.264-.357-5.061-.354-1.376.881-3.845 1.382-3.98zm-29.405-1.334a.094.094 0 0 0-.023.01c.008-.004.015-.008.023-.01zM83.113 32.28c-.133.746-.455 1.051-.852 1.111-.357.053-.686-.353-.603-1.075.169-1.48 1.934-3.045 3.057-3.527.511-.22.911-.229.924.09.012.305-2.33 1.434-2.43 2.643-.033.252-.064.505-.096.758zm11.465-3.053c.307-.322.668-.037 1.046.034 1.64.309 3.619 3.277 3.048 3.917-.273.157-1.404-.744-2.411-1.728-1.009-.985-2.083-1.864-1.683-2.223z"/><path fill="#cc2229" d="M152.305 83.713l-9.02-18.137-92.86 47.776 8.723 18.439 93.157-48.078z"/></svg>