<?xml version="1.0" encoding="UTF-8" standalone="no"?>
<!-- Created with Inkscape (http://www.inkscape.org/) -->

<svg
   xmlns:dc="http://purl.org/dc/elements/1.1/"
   xmlns:cc="http://creativecommons.org/ns#"
   xmlns:rdf="http://www.w3.org/1999/02/22-rdf-syntax-ns#"
   xmlns:svg="http://www.w3.org/2000/svg"
   xmlns="http://www.w3.org/2000/svg"
   xmlns:sodipodi="http://sodipodi.sourceforge.net/DTD/sodipodi-0.dtd"
   xmlns:inkscape="http://www.inkscape.org/namespaces/inkscape"
   version="1.1"
   width="320.66449"
   height="222.16812"
   id="svg2"
   xml:space="preserve"
   inkscape:version="0.48.5 r10040"
   sodipodi:docname="logo-OVHcom.svg"><sodipodi:namedview
     pagecolor="#ffffff"
     bordercolor="#666666"
     borderopacity="1"
     objecttolerance="10"
     gridtolerance="10"
     guidetolerance="10"
     inkscape:pageopacity="0"
     inkscape:pageshadow="2"
     inkscape:window-width="1680"
     inkscape:window-height="998"
     id="namedview3039"
     showgrid="false"
     fit-margin-top="30"
     fit-margin-left="30"
     fit-margin-right="30"
     fit-margin-bottom="30"
     inkscape:zoom="0.59893027"
     inkscape:cx="10.333871"
     inkscape:cy="36.68225"
     inkscape:window-x="-8"
     inkscape:window-y="-8"
     inkscape:window-maximized="1"
     inkscape:current-layer="svg2" /><metadata
     id="metadata8"><rdf:RDF><cc:Work
         rdf:about=""><dc:format>image/svg+xml</dc:format><dc:type
           rdf:resource="http://purl.org/dc/dcmitype/StillImage" /></cc:Work></rdf:RDF></metadata><defs
     id="defs6"><clipPath
       id="clipPath16"><path
         d="m 0,283.46 444.793,0 L 444.793,0 0,0 0,283.46 z"
         inkscape:connector-curvature="0"
         id="path18" /></clipPath></defs><g
     transform="matrix(1.25,0,0,-1.25,-118.83087,277.40825)"
     id="g10"><g
       id="g12"><g
         clip-path="url(#clipPath16)"
         id="g14"><g
           transform="translate(271.6088,194.2935)"
           id="g20"><path
             d="m 0,0 -11.769,-20.452 -12.361,0 -14.588,-25.314 12.382,0 -9.365,-16.261 30.413,0 C 2.486,-52.525 7.155,-40.382 7.155,-27.148 7.155,-17.274 4.546,-8.016 0,0"
             inkscape:connector-curvature="0"
             id="path22"
             style="fill:#264670;fill-opacity:1;fill-rule:nonzero;stroke:none" /></g><g
           transform="translate(211.3757,132.2666)"
           id="g24"><path
             d="m 0,0 0,0 0.03,0 -0.015,0.027 37.79,65.633 -31.969,0 -21.795,-37.878 -19.727,34.276 c -4.557,-8.022 -7.173,-17.292 -7.173,-27.179 0,-13.235 4.668,-25.377 12.443,-34.879 L 0,0 z"
             inkscape:connector-curvature="0"
             id="path26"
             style="fill:#264670;fill-opacity:1;fill-rule:nonzero;stroke:none" /></g><g
           transform="translate(122.9767,87.7491)"
           id="g28"><path
             d="m 0,0 c 0,-10.896 4.973,-16.093 13.522,-16.093 8.55,0 13.523,5.197 13.523,16.093 0,10.952 -4.973,16.148 -13.523,16.148 C 4.973,16.148 0,10.952 0,0 m -3.912,0 c 0,13.243 6.594,19.613 17.434,19.613 10.841,0 17.434,-6.37 17.434,-19.613 0,-13.131 -6.593,-19.557 -17.434,-19.557 -10.84,0 -17.434,6.426 -17.434,19.557"
             inkscape:connector-curvature="0"
             id="path30"
             style="fill:#264670;fill-opacity:1;fill-rule:nonzero;stroke:none" /></g><g
           transform="translate(183.8268,105.7979)"
           id="g32"><path
             d="m 0,0 c 0.167,0.447 0.727,1.229 1.788,1.229 1.062,0 1.9,-0.838 1.9,-1.9 0,-0.335 -0.112,-0.67 -0.168,-0.838 L -9.555,-35.985 c -0.279,-0.783 -1.062,-1.286 -1.788,-1.286 -0.727,0 -1.509,0.503 -1.788,1.286 l -13.076,34.476 c -0.056,0.168 -0.168,0.503 -0.168,0.838 0,1.062 0.839,1.9 1.9,1.9 1.062,0 1.621,-0.782 1.788,-1.229 L -11.343,-30.062 0,0 z"
             inkscape:connector-curvature="0"
             id="path34"
             style="fill:#264670;fill-opacity:1;fill-rule:nonzero;stroke:none" /></g><g
           transform="translate(196.8454,86.5196)"
           id="g36"><path
             d="m 0,0 0,-16.093 c 0,-1.005 -0.838,-1.899 -1.9,-1.899 -1.061,0 -1.9,0.894 -1.9,1.899 l 0,34.7 c 0,1.006 0.839,1.901 1.9,1.901 1.062,0 1.9,-0.895 1.9,-1.901 l 0,-15.142 19.445,0 0,15.142 c 0,1.006 0.839,1.901 1.9,1.901 1.062,0 1.9,-0.895 1.9,-1.901 l 0,-34.7 c 0,-1.005 -0.838,-1.899 -1.9,-1.899 -1.061,0 -1.9,0.894 -1.9,1.899 L 19.445,0 0,0 z"
             inkscape:connector-curvature="0"
             id="path38"
             style="fill:#264670;fill-opacity:1;fill-rule:nonzero;stroke:none" /></g><g
           transform="translate(226.404,71.1534)"
           id="g40"><path
             d="M 0,0 C 0,1.845 1.006,2.683 2.626,2.683 4.247,2.683 5.253,1.845 5.253,0 5.253,-1.844 4.247,-2.626 2.626,-2.626 1.006,-2.626 0,-1.844 0,0"
             inkscape:connector-curvature="0"
             id="path42"
             style="fill:#8a8a89;fill-opacity:1;fill-rule:nonzero;stroke:none" /></g><g
           transform="translate(246.9665,95.125)"
           id="g44"><path
             d="m 0,0 c 4.973,0 7.711,-2.626 8.604,-3.855 0.28,-0.391 0.392,-0.671 0.392,-1.062 0,-0.95 -0.726,-1.62 -1.62,-1.62 -0.56,0 -0.95,0.223 -1.342,0.67 -0.838,0.95 -2.346,2.626 -6.034,2.626 -5.141,0 -7.879,-3.296 -7.879,-10.169 0,-6.986 2.738,-10.226 7.879,-10.226 3.24,0 5.196,1.452 6.481,2.403 0.392,0.279 0.671,0.391 1.062,0.391 0.895,0 1.621,-0.726 1.621,-1.621 0,-0.503 -0.168,-0.893 -0.726,-1.396 -1.23,-1.006 -3.913,-3.018 -8.438,-3.018 -7.208,0 -11.511,4.303 -11.511,13.467 C -11.511,-4.246 -7.208,0 0,0"
             inkscape:connector-curvature="0"
             id="path46"
             style="fill:#8a8a89;fill-opacity:1;fill-rule:nonzero;stroke:none" /></g><g
           transform="translate(279.9333,81.7149)"
           id="g48"><path
             d="m 0,0 c 0,7.04 -2.961,10.169 -8.102,10.169 -5.141,0 -8.102,-3.129 -8.102,-10.169 0,-7.152 2.961,-10.226 8.102,-10.226 C -2.961,-10.226 0,-7.152 0,0 m 3.633,0 c 0,-9.164 -4.471,-13.467 -11.735,-13.467 -7.209,0 -11.734,4.303 -11.734,13.467 0,9.164 4.525,13.41 11.734,13.41 C -0.838,13.41 3.633,9.164 3.633,0"
             inkscape:connector-curvature="0"
             id="path50"
             style="fill:#8a8a89;fill-opacity:1;fill-rule:nonzero;stroke:none" /></g><g
           transform="translate(327.5963,85.2344)"
           id="g52"><path
             d="m 0,0 0,-14.919 c 0,-1.006 -0.782,-1.788 -1.788,-1.788 -1.006,0 -1.788,0.782 -1.788,1.788 l 0,14.193 c 0,4.414 -1.565,7.432 -6.986,7.432 -4.804,0 -6.984,-2.57 -6.984,-6.706 l 0,-14.919 c 0,-1.006 -0.782,-1.788 -1.788,-1.788 -1.006,0 -1.788,0.782 -1.788,1.788 l 0,14.193 c 0,4.414 -1.397,7.432 -6.873,7.432 -5.196,0 -6.873,-3.13 -6.873,-7.823 l 0,-13.802 c 0,-1.006 -0.782,-1.788 -1.788,-1.788 -1.006,0 -1.788,0.782 -1.788,1.788 l 0,22.687 c 0,1.005 0.782,1.788 1.788,1.788 1.006,0 1.788,-0.783 1.788,-1.788 l 0,-1.789 c 0.95,2.068 3.632,3.912 7.264,3.912 4.583,0 7.543,-1.676 8.884,-3.912 1.398,2.179 3.857,3.912 8.158,3.912 C -1.956,9.891 0,4.75 0,0"
             inkscape:connector-curvature="0"
             id="path54"
             style="fill:#8a8a89;fill-opacity:1;fill-rule:nonzero;stroke:none" /></g></g></g></g></svg>