<?xml version="1.0" encoding="UTF-8"?> <!-- Generator: Adobe Illustrator 23.0.1, SVG Export Plug-In . SVG Version: 6.00 Build 0) --> <svg xmlns="http://www.w3.org/2000/svg" xmlns:xlink="http://www.w3.org/1999/xlink" id="Warstwa_1" x="0px" y="0px" viewBox="0 0 841.89 595.276" xml:space="preserve"> <g> <path fill="#FFFFFF" d="M410.857,223.587c0-66.586,47.622-122.241,110.594-134.739C493.342,53.824,450.203,31.379,401.8,31.379 c-84.705,0-153.372,68.667-153.372,153.372c0,32.397,10.054,62.442,27.199,87.203l-95.739,66.169h139.011l99.714-68.916 C413.463,254.606,410.857,239.293,410.857,223.587z"></path> <path fill="#FFFFFF" d="M548.238,109.053c-63.156,0-114.536,51.38-114.536,114.534c0,18.919,4.588,37.254,13.364,53.726 l-87.985,60.81h189.158c63.152,0,114.533-51.38,114.533-114.536C662.771,160.433,611.391,109.053,548.238,109.053z"></path> </g> <g> <path fill="#FFFFFF" d="M117.228,453.825c0-16.714,13.527-29.468,30.76-29.468c11.373,0,20.851,5.604,26.021,15.253l-11.287,7.667 c-3.447-5.856-8.1-9.303-14.821-9.303c-9.047,0-15.509,6.373-15.509,15.937c0,9.567,6.462,15.77,15.509,15.77 c6.721,0,11.374-3.447,14.821-9.307l11.287,7.671c-5.17,9.649-14.648,15.249-26.108,15.249 C130.756,483.293,117.228,470.628,117.228,453.825z"></path> <path fill="#FFFFFF" d="M182.443,425.395h14.819v43.508h23.522v13.356h-38.342V425.395z"></path> <path fill="#FFFFFF" d="M224.309,453.825c0-16.714,13.613-29.468,30.587-29.468s30.76,12.754,30.76,29.468 c0,16.803-13.786,29.468-30.76,29.468S224.309,470.628,224.309,453.825z M270.491,453.825c0-9.478-6.721-15.851-15.509-15.851 c-9.132,0-15.509,6.373-15.509,15.851c0,9.653,6.377,15.855,15.509,15.855C263.77,469.68,270.491,463.478,270.491,453.825z"></path> <path fill="#FFFFFF" d="M293.744,458.135v-32.74h14.819v33.859c0,6.548,4.31,10.426,10.341,10.426s10.339-3.878,10.339-10.426 v-33.859h14.819v32.74c0,15.249-10.77,25.158-25.158,25.158C304.429,483.293,293.744,473.384,293.744,458.135z"></path> <path fill="#FFFFFF" d="M355.08,425.395h19.819c17.577,0,31.018,10.768,31.018,28.259c0,17.145-13.442,28.605-31.018,28.605H355.08 V425.395z M374.813,468.903c8.961,0,15.937-5.514,15.937-15.249c0-10.08-6.976-14.821-15.937-14.821h-4.912v30.07H374.813z"></path> <path fill="#FFFFFF" d="M488.877,425.395v57.898h-4.741l-30.844-29.899v28.866h-14.821v-57.902h4.741l30.844,29.468v-28.43H488.877 z"></path> <path fill="#FFFFFF" d="M533.155,477.522h-20.421l-2.067,4.737h-15.941l25.85-57.902h4.737l25.85,57.902h-15.941L533.155,477.522z M522.989,452.449l-4.997,13.182h9.909L522.989,452.449z"></path> <path fill="#FFFFFF" d="M562.787,438.747h-17.06v-13.353h48.937v13.353h-17.06v43.512h-14.818V438.747z"></path> <path fill="#FFFFFF" d="M601.205,425.395h14.821v56.865h-14.821V425.395z"></path> <path fill="#FFFFFF" d="M678.316,425.395l-25.85,57.898h-4.737l-25.85-57.898h16.803l11.46,27.914l11.371-27.914H678.316z"></path> <path fill="#FFFFFF" d="M684.165,425.395h39.463v13.353h-24.641v7.842h17.577v12.408h-17.577v9.906h25.675v13.356h-40.497V425.395z "></path> <path fill="#FFFFFF" d="M320.804,505.354l-23.437,57.898h-4.739l-14.474-29.724l-14.561,29.724h-4.739l-23.437-57.898h16.543 l10.685,27.311l13.096-28.349h4.739l13.096,28.349l10.685-27.311H320.804z"></path> <path fill="#FFFFFF" d="M353.537,557.481h-20.421l-2.069,4.737h-15.939l25.846-57.902h4.741l25.846,57.902h-15.937L353.537,557.481 z M343.367,532.409l-4.997,13.182h9.909L343.367,532.409z"></path> <path fill="#FFFFFF" d="M411.167,562.219l-12.839-17.662h-6.117v17.662H377.39v-56.865h22.318c12.494,0,21.972,7.496,21.972,19.559 c0,7.15-3.447,12.836-8.961,16.197l14.992,21.109H411.167z M392.211,531.632h7.582c4.135,0,6.808-2.67,6.808-6.719 c0-3.964-2.673-6.637-6.808-6.637h-7.582V531.632z"></path> <path fill="#FFFFFF" d="M429.428,550.502l9.995-7.582c2.755,3.703,6.288,7.321,12.665,7.321c3.964,0,5.86-1.38,5.86-4.135 c0-2.67-1.811-3.532-5.775-5.258l-5.856-2.584c-9.047-3.964-14.39-9.132-14.39-17.145c0-10.166,8.359-16.803,19.904-16.803 c9.906,0,16.197,4.912,19.469,11.46l-9.906,7.582c-2.584-3.789-5.083-6.031-9.393-6.031c-2.93,0-5.083,1.037-5.083,3.622 c0,2.067,1.379,3.187,4.912,4.652l6.548,2.755c9.478,3.964,14.561,8.79,14.561,17.149c0,11.2-9.132,17.748-20.852,17.748 C441.662,563.252,433.478,558.169,429.428,550.502z"></path> <path fill="#FFFFFF" d="M513.857,557.481h-20.421l-2.067,4.737h-15.941l25.85-57.902h4.737l25.85,57.902h-15.941L513.857,557.481z M503.691,532.409l-4.997,13.182h9.909L503.691,532.409z"></path> <path fill="#FFFFFF" d="M611.557,505.354l-23.433,57.898h-4.741l-14.476-29.724l-14.561,29.724h-4.737l-23.437-57.898h16.543 l10.683,27.311l13.096-28.349h4.741l13.096,28.349l10.683-27.311H611.557z"></path> </g> </svg> 