<svg id="Layer_1" data-name="Layer 1" xmlns="http://www.w3.org/2000/svg" viewBox="0 0 1480.18306 2500"><defs><style>.cls-1{fill:#cc2229;}.cls-1,.cls-2,.cls-3,.cls-4,.cls-5,.cls-6,.cls-7{fill-rule:evenodd;}.cls-2{fill:#e6e6e7;}.cls-3{fill:#bbbcbf;}.cls-4{fill:#e9c489;}.cls-5{fill:#fff;}.cls-7{fill:#8f2e33;}</style></defs><title>duff-beer</title><path class="cls-1" d="M286.699,267.04745v.40207h0Z"/><path class="cls-2" d="M1139.96682,2282.39321C1034.4059,2320.9912,892.60748,2344.7,736.69789,2344.7c-159.139,0-303.34982-24.915-409.31278-64.70613v22.10041c0,49.02569,186.53121,87.62368,407.28952,87.62368,219.95424,0,405.29219-39.77828,405.29219-87.22174v-20.103Z"/><path d="M734.67478,2392.51239c-107.75488,0-209.68408-9.05176-287.01025-25.48828-38.03858-8.085-67.96192-17.52539-88.93848-28.0586-22.65088-11.373-34.13574-23.77832-34.13574-36.87109v-22.10059a2.79434,2.79434,0,0,1,3.77734-2.61621C439.1782,2318.989,584.19236,2341.905,736.69773,2341.905c149.84668,0,292.72266-22.06739,402.30957-62.13672a2.79451,2.79451,0,0,1,3.75488,2.625v20.10254c0,12.72851-11.41992,24.88867-33.9414,36.14453-20.91993,10.4541-50.67188,19.87207-88.42969,27.99023C942.771,2383.321,841.30222,2392.51239,734.67478,2392.51239ZM330.18015,2284.01727v18.07715c0,21.76172,43.24512,43.43457,118.64649,59.46191,76.95605,16.35742,178.47216,25.36621,285.84814,25.36621,106.24365,0,207.29541-9.14746,284.5415-25.75683,74.96289-16.11914,117.95606-37.50293,117.95606-58.66992v-16.11621c-109.68457,39.42871-251.68848,61.11523-400.47461,61.11523C585.26706,2347.49481,441.1074,2324.96551,330.18015,2284.01727Z"/><path class="cls-1" d="M1325.29171,526.70215c0,91.64438-368.62662,128.21911-588.99586,128.21911s-589.398-36.57473-589.398-128.21911V2115.97824c0,70.737,263.88284,128.21912,589.8,128.21912,323.90689,0,588.59382-57.48209,588.59382-128.21912Z"/><path d="M736.69773,2246.99188c-157.76318,0-306.10986-13.37012-417.71289-37.64648-65.313-14.208-174.88184-45.2295-174.88184-93.36719V526.70233a2.79493,2.79493,0,0,1,5.58985,0c0,85.56152,350.03466,125.42383,586.603,125.42383,236.40577,0,586.20069-39.86231,586.20069-125.42383a2.79492,2.79492,0,1,1,5.58984,0V2115.97821c0,48.09375-109.66309,79.14062-175.03223,93.36719C1041.50339,2233.62176,893.63816,2246.99188,736.69773,2246.99188ZM149.69285,546.43475V2115.97821c0,32.29687,62.13769,64.33691,170.48,87.90429,111.22461,24.19532,259.14941,37.51954,416.5249,37.51954,156.55273,0,303.99609-13.32422,415.168-37.51954,108.43847-23.59863,170.63086-55.63867,170.63086-87.90429V546.44452c-8.78614,15.06006-27.90235,28.96777-57.14356,41.52246-35.86035,15.397-86.81445,28.84326-151.44629,39.96582C986.30027,649.89227,835.17624,657.716,736.29587,657.716c-98.90673,0-250.09765-7.82373-377.811-29.7832-64.68945-11.12305-115.68994-24.56934-151.58447-39.96533C177.62205,575.40936,158.48533,561.4992,149.69285,546.43475Z"/><path d="M736.29587,2347.48211c-156.35888,0-304.1914-23.8164-416.26562-67.0625C206.582,2236.64227,144.103,2178.24286,144.103,2115.97821a2.79492,2.79492,0,0,1,5.58985,0c0,31.959,60.748,63.78222,166.66748,87.30859,110.65478,24.5791,259.79052,38.11524,419.93554,38.11524,160.11475,0,309.17823-13.53809,419.73389-38.11914,105.792-23.52344,166.4668-55.34375,166.4668-87.30469a2.79492,2.79492,0,1,1,5.58984,0C1328.0864,2243.62958,1062.61081,2347.48211,736.29587,2347.48211ZM152.67331,2138.71063c5.83594,22.11133,20.22413,43.67187,42.98682,64.34863,29.6919,26.96875,72.21289,51.24219,126.38233,72.14453,111.44824,43.00489,258.56591,66.68848,414.25341,66.68848,155.6626,0,302.7085-23.68359,414.05127-66.6875,54.11231-20.90039,96.58692-45.17285,126.24317-72.14453,22.72851-20.6709,37.09765-42.22949,42.92773-64.33887-20.30078,26.56738-76.1709,50.873-162.27539,70.01758-110.94141,24.668-260.43652,38.25293-420.94678,38.25293-160.54052,0-310.10644-13.583-421.14746-38.24805C228.92917,2189.59344,172.98972,2165.2829,152.67331,2138.71063Z"/><path class="cls-2" d="M733.88352,110.29487c246.15311,0,447.18447,47.02836,447.18447,104.91241,0,57.482-201.03136,104.89948-447.18457,104.89948-246.55526,0-447.58656-47.43043-447.58656-104.89948,0-57.884,201.0314-104.91242,447.58656-104.91242Z"/><path d="M733.88328,322.90155c-119.30469,0-231.84522-10.99951-316.89014-30.97266-86.0835-20.2168-133.49121-47.46387-133.49121-76.72168,0-15.23926,12.34961-29.79346,36.70605-43.2583,22.81348-12.61182,55.377-23.92529,96.78662-33.62549,84.85157-19.87646,197.39161-30.82324,316.88868-30.82324,119.32324,0,231.73828,10.94678,316.53808,30.82324,86.05078,20.17041,133.44141,47.47461,133.44141,76.88379,0,29.25781-47.38965,56.50635-133.44043,76.72656C965.436,311.9035,853.02,322.90155,733.88328,322.90155Zm0-209.81153c-119.08057,0-231.168,10.89454-315.61377,30.67627-82.09424,19.23047-129.17774,45.26954-129.17774,71.44092,0,26.019,47.084,51.99951,129.1792,71.27979,84.63867,19.87744,196.7251,30.8247,315.61231,30.8247,118.71875,0,230.68066-10.94531,315.26074-30.81982,82.06347-19.2832,129.1289-45.26563,129.1289-71.28467,0-26.1665-47.06543-52.20605-129.12793-71.4414C964.75144,123.98456,852.78953,113.09,733.88328,113.09Z"/><path class="cls-2" d="M733.88352,162.55006c246.15311,0,447.18447,47.01541,447.18447,104.89946S980.03663,372.36193,733.88342,372.36193c-246.55526,0-447.58656-47.02836-447.58656-104.91244,0-57.87108,201.0314-104.89946,447.58656-104.89946Z"/><path d="M733.88328,375.15692c-119.49756,0-232.0376-10.94629-316.88868-30.82324-41.40966-9.7002-73.97314-21.01368-96.78662-33.62549-24.35644-13.46533-36.70605-28.01953-36.70605-43.25879,0-29.40869,47.40869-56.709,133.49267-76.87256,84.854-19.876,197.39405-30.82178,316.88868-30.82178,119.32617,0,231.74121,10.94434,316.53711,30.8169,86.05175,20.167,133.44238,47.46924,133.44238,76.87744,0,29.40918-47.39063,56.71387-133.44141,76.88428C965.62156,364.21014,853.20652,375.15692,733.88328,375.15692Zm0-209.812c-119.07813,0-231.16553,10.89355-315.61377,30.67431-82.09424,19.2295-129.17774,45.26465-129.17774,71.43018,0,26.17139,47.0835,52.21094,129.17774,71.44141,84.4458,19.78173,196.53271,30.67627,315.61377,30.67627,118.90625,0,230.86816-10.894,315.26171-30.67579,82.0625-19.23535,129.12793-45.2749,129.12793-71.44189,0-26.166-47.06543-52.20264-129.12793-71.43506C964.75535,176.237,852.79246,165.34491,733.88328,165.34491Z"/><path class="cls-2" d="M1181.05512,221.23825c-14.48728,54.2655-209.48764,98.88149-446.76947,98.88149-246.95729,0-447.98864-47.43042-447.58655-104.89944l-.402,52.24221c0,59.09024,205.869,104.91243,448.39063,104.91243,242.53457,0,446.3803-47.43042,446.3803-104.51034V221.2383h-.01307Z"/><path d="M734.68748,375.1701c-118.62452,0-230.76661-10.78515-315.76807-30.36865-41.93164-9.66064-74.90576-20.95361-98.00537-33.56445-24.82471-13.55274-37.41211-28.28076-37.41211-43.77442l.40234-52.26367a2.79487,2.79487,0,0,1,2.79444-2.77344h.021a2.79528,2.79528,0,0,1,2.77442,2.81446v.00927c-.04737,7.20948,3.54638,14.5083,10.68212,21.69385,46.251,46.57617,228.82081,80.38184,434.10938,80.38184,113.8291,0,222.61719-10.30762,306.32324-29.02393,80.86621-18.08154,131.07227-42.7876,137.7461-67.7832a2.7943,2.7943,0,0,1,2.70019-2.07422h.0127a2.79478,2.79478,0,0,1,2.79492,2.79492v46.626c0,29.00342-47.73047,56.12988-134.39844,76.38183C964.12546,364.18817,852.3364,375.1701,734.68748,375.1701ZM289.3613,232.506l-.26953,34.978c0,26.47412,47.77783,52.67724,131.08252,71.87011,84.60254,19.4917,196.29883,30.22608,314.51319,30.22608,117.23291,0,228.5708-10.93018,313.50439-30.77734,82.668-19.31739,130.08105-45.17334,130.08105-70.93848V233.22235c-16.42675,23.12988-63.88964,44.311-136.44433,60.53369-84.09473,18.80322-193.31543,29.15869-307.543,29.15869-101.62695,0-201.36572-8.27734-280.84375-23.30762-78.53564-14.852-134.37549-35.70752-157.23242-58.72509A52.25772,52.25772,0,0,1,289.3613,232.506Z"/><path class="cls-3" d="M882.5559,300.01659c59.194,0,108.7515-17.69076,108.7515-39.38918,0-21.30932-49.5445-38.98712-108.7515-38.98712-20.94615,0-51.98286,6.82209-84.60181,4.42269-66.885-4.82475-120.4632-43.81187-188.94355-43.81187-70.90574,0-127.71327,22.50253-127.71327,49.44074s57.61171,49.03869,128.51745,49.03869c265.86722-.013,184.10581,19.286,272.74118,19.286Zm0-15.27837c47.11919,0,85.795-10.85569,85.795-24.11078,0-12.866-38.67587-23.72171-85.795-23.72171-48.36421,0-86.638,10.85569-86.638,23.72171C795.91786,273.88253,834.19159,284.73822,882.5559,284.73822Z"/><path d="M882.55613,302.8117c-32.81153,0-42.59082-2.62988-54.97071-5.959-20.915-5.625-49.56054-13.32715-217.5-13.32715h-.2705c-34.5918,0-67.21-5.18555-91.84619-14.60156-25.4502-9.72705-39.46631-22.94971-39.46631-37.23193,0-14.31739,13.86718-27.60889,39.04638-37.42627,24.49414-9.5503,56.97608-14.80957,91.46192-14.80957,36.92627,0,69.94336,11.31933,101.873,22.2666,27.7085,9.49951,56.35987,19.32275,87.272,21.55273,19.96093,1.46875,39.25976-.55273,56.28613-2.33594,10.28418-1.07714,19.99805-2.09423,28.11426-2.09423,28.97363,0,56.50488,4.14306,77.52051,11.666,21.9414,7.85449,34.02539,18.54981,34.02539,30.11621,0,11.73194-12.084,22.54932-34.02442,30.46094C939.10984,298.64813,911.57956,302.8117,882.55613,302.8117Zm-272.47022-24.876c168.70362,0,197.73487,7.813,218.95166,13.51855,11.98145,3.22266,21.44532,5.76758,53.51856,5.76758,28.39258,0,55.25-4.0459,75.625-11.39209,19.27539-6.95019,30.331-16.13574,30.331-25.20215,0-19.27978-49.51269-36.19238-105.956-36.19238-7.82422,0-17.39746,1.00244-27.53223,2.064-17.25879,1.80762-36.81641,3.85547-57.27441,2.35157-31.63184-2.28174-60.63282-12.22461-88.67871-21.84034-31.49659-10.79834-64.06543-21.96435-100.06006-21.96435-67.71289,0-124.91846,21.36133-124.91846,46.646,0,25.0664,57.57373,46.24365,125.72266,46.24365Zm272.47022,9.59765c-23.55664,0-45.65039-2.55273-62.209-7.188-17.81054-4.98584-27.22461-11.8042-27.22461-19.71778,0-17.22314,46.07813-26.5166,89.4336-26.5166,22.96972,0,44.74511,2.53516,61.31543,7.13818,12.44238,3.45606,27.27441,9.624,27.27441,19.37842C971.146,278.1037,925.50242,287.53338,882.55613,287.53338Zm0-47.83252c-22.99414,0-44.55469,2.46289-60.71,6.93457-17.05664,4.72168-23.13379,10.32374-23.13379,13.99219,0,3.79785,6.0791,9.55811,23.1416,14.33447,16.082,4.502,37.64062,6.98145,60.70215,6.98145,22.5459,0,43.78711-2.479,59.81152-6.981,17.09668-4.80273,23.18848-10.5542,23.18848-14.335C965.55613,251.88934,933.98,239.70086,882.55613,239.70086Z"/><path class="cls-4" d="M1326.10885,526.70215l-.81714,246.80164L747.99449,982.91366,146.89776,744.95739V523.48563l1179.21089,3.21652Z"/><path d="M747.9946,985.70868a2.78814,2.78814,0,0,1-1.02832-.19629L145.86912,747.55584a2.79477,2.79477,0,0,1-1.76612-2.59863V523.48553a2.79489,2.79489,0,0,1,2.79492-2.79492h.00782l1179.21093,3.2168a2.79489,2.79489,0,0,1,2.78711,2.8042l-.81738,246.80127a2.79462,2.79462,0,0,1-1.8418,2.61816L748.94773,985.5412A2.79611,2.79611,0,0,1,747.9946,985.70868ZM149.69285,743.0578,748.03757,979.925l574.46582-208.38331.80078-242.05224L149.69285,526.28827Z"/><path class="cls-5" d="M1181.05512,269.07074c-4.03366,57.067-203.02869,102.90211-446.38039,102.90211-246.95729,0-447.98865-46.62629-447.98865-104.51034a.39376.39376,0,0,1,.402-.40207l-138.167,248.39692a27.62031,27.62031,0,0,0-2.02326,11.25775c0,70.335,263.88289,128.21912,589.80008,128.21912,323.90689,0,588.59391-57.88408,588.59391-128.21912a27.97563,27.97563,0,0,0-2.43836-11.25775Z"/><path class="cls-5" d="M1181.05512,269.07074c-4.03366,57.067-203.02869,102.90211-446.38039,102.90211-246.95729,0-447.98865-46.62629-447.98865-104.51034l.402-.40207-138.1669,248.397a27.62031,27.62031,0,0,0-2.02326,11.25775c0,70.335,263.88284,128.21907,589.8,128.21907,323.90689,0,588.59391-57.88408,588.59391-128.21912a27.97563,27.97563,0,0,0-2.43836-11.25775Z"/><path d="M736.69822,657.72918c-157.55811,0-305.90528-13.42382-417.71436-37.79834-54.36377-11.85107-97.106-25.65332-127.03857-41.02246C160.19968,562.6076,144.103,545.04754,144.103,526.715a29.98948,29.98948,0,0,1,2.26758-12.40087q.0498-.10987.1084-.21534L283.9321,266.98456a2.79737,2.79737,0,0,1,.77784-1.49854l.40185-.40234a2.79515,2.79515,0,0,1,4.41895,3.33545l-.02637.04785c1.18994,25.80859,48.12939,51.356,129.20068,70.23486,84.394,19.65283,196.60743,30.47608,315.96973,30.47608,117.50928,0,228.42236-10.647,312.30713-29.9795,81.60449-18.80713,129.45605-44.43945,131.28515-70.3247a2.79519,2.79519,0,0,1,5.21094-1.19678l141.79883,246.38623c.04492.0791.08691.16064.125.24414a30.811,30.811,0,0,1,2.68457,12.40771c0,18.32422-16.12891,35.88477-47.93848,52.19385-29.96093,15.36182-72.72168,29.16358-127.09277,41.022C1041.29929,644.30536,893.43406,657.72918,736.69822,657.72918ZM151.42576,516.70526a24.77251,24.77251,0,0,0-1.73291,10.00976c0,32.1504,62.13818,64.13526,170.48144,87.7544,111.42969,24.292,259.354,37.66992,416.52393,37.66992,156.34717,0,303.78857-13.37793,415.16552-37.66992,108.43946-23.65088,170.63282-55.63623,170.63282-87.7544a25.108,25.108,0,0,0-2.13575-9.98632l-138.081-239.92676c-12.041,34.72412-87.8418,57.1958-134.043,67.84375-84.28418,19.4248-195.64258,30.12207-313.562,30.12207-119.77637,0-232.44043-10.875-317.2373-30.62158-41.44043-9.64991-74.01856-20.91651-96.83057-33.48633-19.7041-10.85742-31.55225-22.439-35.36279-34.53418Z"/><path class="cls-1" d="M736.29585,668.59136c77.75378,0,141.40935,59.07728,141.40935,131.43558,0,72.34538-63.65557,131.43563-141.40935,131.43563s-141.0073-59.09025-141.0073-131.43563C595.30151,727.66864,658.54208,668.59136,736.29585,668.59136Z"/><path d="M736.29587,934.2575c-79.293,0-143.80224-60.21533-143.80224-134.23046.01318-74.01514,64.52295-134.23047,143.80224-134.23047,79.51514,0,144.20459,60.21533,144.20459,134.23047S815.811,934.2575,736.29587,934.2575Zm0-262.87109c-76.19775,0-138.19922,57.708-138.2124,128.64111,0,70.93213,62.00195,128.64014,138.2124,128.64014,76.43213,0,138.61475-57.708,138.61475-128.64062S812.728,671.38641,736.29587,671.38641Z"/><path class="cls-5" d="M232.31676,1094.24612c335.99475,65.12114,671.56149,67.53357,1007.56916-15.66748v572.35568c-335.99471,92.04642-671.57441,92.8505-1007.56911,15.2783V1094.246Z"/><path class="cls-6" d="M264.94868,1789.20492c-26.9901-288.59022-36.66552-577.59545,0-866.18578C439.392,988.52946,544.94,1130.41861,528.01443,1407.7641,492.166,1666.21262,407.16215,1763.888,264.94868,1789.20492Zm58.41584-111.33245c-16.10846-198.56707-22.15236-397.12127,0-596.09037,106.352,45.4201,170.40974,142.69333,160.33222,333.62125C461.54438,1593.06316,409.97663,1660.58387,323.36452,1677.87247ZM583.61574,1367.973c7.25008,142.69333,35.05731,216.24494,87.42915,206.60835,89.03741,1.60826,114.41925-87.62368,95.87248-238.35831-12.08781-77.97424-70.89278-50.63395-55.99049,0,17.31462,112.55164,6.446,168.4124-31.82784,166.80414-35.86139-1.60825-37.46964-69.53091-31.82783-150.72166,2.0103-60.30943-68.89534-63.52594-63.65557,15.66748Z"/><path class="cls-6" d="M650.48793,1663.00917c64.0577-43.00776,128.10235-85.62635,192.16-128.63412,1.62122-141.08508,8.05426-282.55923,29.81754-423.64441,12.48985-63.90206,119.64606-111.7345,146.64912,7.23711,22.16532,57.482-25.78388,87.22165-43.92861,43.81184-32.63191-58.28616-51.95683-48.63661-58.7919,29.33763-15.33026,102.90208-20.94615,205.79121-22.16533,309.09544,51.95684-34.96648,104.34174-69.94591,156.29867-104.51035,3.24244-113.34275,10.89455-226.29643,28.22224-339.65224,12.48985-63.49992,119.64606-111.33246,146.64912,7.63915,22.1394,57.482-25.784,87.23461-43.92851,43.81184-32.632-58.2731-51.98286-48.63662-58.81793,29.35059-10.86863,74.35568-16.92555,149.1134-19.72706,223.88409,34.25313-22.91755,68.46738-45.82214,103.12255-68.73979,3.61866,17.28869,7.65212,34.57739,11.2967,51.85313-38.67577,26.13407-77.76674,52.25517-116.45557,78.37628-1.5953,65.92531-.79112,131.44859,0,196.95881,8.45629,75.5619-13.68311,138.67274-36.65251,175.64951-41.89238,66.31449-124.4838,9.24741-117.23372-73.14947-1.21918-42.60572,50.76368-44.616,51.16572-14.87636,9.27333,88.843,52.761,55.06965,51.58072-51.04895-.80408-66.3144-1.21918-132.64175-.402-198.95624q-77.97429,53.05277-155.90949,105.30156c0,36.98973.402,74.35568,1.21918,111.33245,8.45629,75.56191-13.709,138.67275-36.67854,175.64952-41.89238,66.32735-124.47083,9.64955-117.23372-73.14947-1.20622-42.21664,50.76368-44.616,51.16572-14.8633,8.87129,88.82991,52.78694,55.05659,51.16572-51.06191-.402-37.78086-.402-75.56191-.402-113.75776q-74.58748,50.45916-149.4636,100.48975c-41.51617,27.35315-76.15848-5.603-42.72239-33.73433Z"/><path class="cls-7" d="M294.36407,1947.17676l78.14281,18.09288c13.294,2.81438,22.56736,9.24741,28.61131,19.286,5.64182,10.03863,7.65212,20.8942,6.044,33.35832-1.20622,10.45363-4.83774,18.88389-10.88159,24.915-4.03356,4.03366-9.66251,6.835-16.12147,8.44333,9.27333,5.21376,15.70637,12.06179,18.93584,20.49226,3.61856,8.44333,4.83774,18.09287,3.21652,29.35058a59.25811,59.25811,0,0,1-8.05425,23.30663c-4.4357,6.433-9.67548,11.25771-15.70637,14.07228-4.03356,1.60816-9.67547,2.4253-16.92555,2.0103-9.67547-.40214-15.70636-.80408-18.92288-1.60816l-72.12487-16.48452,23.78654-175.23451Zm32.619,78.37628,18.13177,4.0206q10.272,2.41224,14.50015-1.20622c2.81437-2.41244,4.83773-6.0309,5.23977-11.64679.80408-5.22681.402-9.64954-2.01029-12.86606-2.0103-3.21652-6.446-6.03089-12.48985-7.23711l-18.53381-4.42273Zm-9.26037,68.72673,21.34828,4.82468c7.263,1.60816,12.48985,1.20621,15.71933-1.20622,3.61856-2.81438,5.64182-6.835,6.446-12.46393a19.59273,19.59273,0,0,0-2.4253-13.67014c-2.81448-3.60559-7.65212-6.42-14.90229-8.02833l-21.34828-4.82467Zm236.87969-99.68567,114.0172,7.63925-1.60826,38.183-71.32074-4.82467-1.19326,28.14436,66.068,4.42274-1.21918,36.17269-66.068-4.4356-1.60825,34.97954,73.31807,5.22681-1.60825,40.19329-116.02751-8.04119,7.25008-177.65981Zm255.82868,8.04139,113.99128-7.63925,1.21918,37.78085-70.90574,4.82468,1.21918,28.5465,65.65291-4.42273,1.62122,36.17269-66.055,4.42273,1.59529,34.96648,72.929-4.82468,1.5953,40.20635-115.6125,7.62619Zm275.95769,143.49742-21.34828-175.64952L1134.727,1956.022c12.892-2.81437,23.38441-3.21651,30.62152-1.60816,7.25017,1.20622,13.29393,5.629,18.52074,12.46393,4.83774,7.23711,8.08018,16.06952,9.67547,27.31436,1.21909,9.64955.80408,18.49482-1.59529,26.13407a52.35469,52.35469,0,0,1-11.29669,20.10317,50.76026,50.76026,0,0,1-14.08515,9.64955,60.14747,60.14747,0,0,1,12.08791,4.0206c1.59529,1.20621,4.03366,4.02059,7.65211,8.04119,3.61866,4.02059,6.05682,7.23711,7.25018,9.63648l26.60092,47.02846-47.54717,9.64955-29.00039-49.03876c-3.61856-6.433-6.83507-10.45363-9.27333-12.06178a14.49954,14.49954,0,0,0-10.86863-1.99744l-3.61856.80408,8.87129,71.13917-42.33331,8.83241Zm29.4154-113.35582,17.72963-3.60559c1.99733-.40214,5.62885-1.62122,10.86863-4.82468a11.84128,11.84128,0,0,0,6.031-6.433c1.21908-3.61865,2.02336-7.23711,1.21908-10.85577-.40214-5.629-2.41244-9.64954-5.62885-12.46392-3.24245-2.41244-8.4563-2.81438-16.13443-1.20622l-18.52085,4.0206,4.4357,35.36861Z"/></svg>