<?xml version="1.0" encoding="utf-8"?>
<!-- Generator: Adobe Illustrator 18.1.0, SVG Export Plug-In . SVG Version: 6.00 Build 0)  -->
<svg version="1.1" id="Layer_1" xmlns="http://www.w3.org/2000/svg" xmlns:xlink="http://www.w3.org/1999/xlink" x="0px" y="0px"
	 viewBox="0 0 72 72" enable-background="new 0 0 72 72" xml:space="preserve">
<circle fill="#21376C" cx="36.3" cy="36.4" r="34.3"/>
<path fill="#FFFFFF" d="M13.4,44c0,0-5.2-2.6-7.5,2.4c0,0,3.2,23.6,29.2,23.6c22.8,0,30.1-21.7,30.1-21.7s-0.6-4.6-5.4-2.5
	C59.9,45.9,30.9,51.5,13.4,44z"/>
<path fill="#90C5EB" d="M51,65.8c-4.2,2.5-9.4,4.2-15.8,4.2C9.1,70,5.9,46.4,5.9,46.4c2.3-5,7.5-2.4,7.5-2.4
	c6.9,2.9,15.5,3.8,23.5,3.8c0,0-8.4,12.9,7.6,19.5L51,65.8z"/>
<path fill="#90C5EB" d="M33.1,56.7c0,0,9.6-0.9,17.9,3.8c0,0,1.7-2.8,1.4-3.2c0,0-13.1-3.8-19-3S33.1,56.7,33.1,56.7z"/>
<path fill="#9C4343" d="M36,0C16.1,0,0,16.1,0,36c0,19.9,16.1,36,36,36s36-16.1,36-36C72,16.1,55.9,0,36,0z M36,67.3
	c-17.5,0-31.6-14.1-31.6-31.6C4.4,18.2,18.6,4.1,36,4.1s31.6,14.1,31.6,31.6C67.6,53.1,53.5,67.3,36,67.3z"/>
<path fill="#CF4450" d="M24.7,51.1c0,0,0.5,3.8,8.2,5.5c0,0,0.5,0.5-1.9,1.7c-2.4,1.2-9.7-1-11-6C19.9,52.3,21.6,49.5,24.7,51.1z"/>
<path fill="#CF4450" d="M45.4,51.8c0,0-0.5,3.8-8.2,5.5c0,0-0.5,0.5,1.9,1.7c2.4,1.2,9.7-1,11-6C50.1,53.1,48.5,50.3,45.4,51.8z"/>
<path fill="#13161D" d="M20.1,8.4c0,0-0.8-1.3-2.1-0.3c-2.1,1.5-1.1,2.5-1.1,2.5L20.1,8.4z"/>
<path fill="#FFFFFF" d="M18.2,23.7c0,0-5.6,2.2-6.8-1.2C10,19.2,14,12,18.2,9.2c4.2-2.8,13.7-8.9,15.2-0.7c0,0-0.6,3.4-2.7,4.5
	C30.8,13,23.4,15.3,18.2,23.7z"/>
<path fill="#90C5EB" d="M15.1,12c-2.8,3.4-4.8,8-3.8,10.6c1.3,3.4,6.8,1.2,6.8,1.2C23.4,15.3,30.8,13,30.8,13c0.6-0.3,1-0.8,1.4-1.4
	c0,0-2.3-4.4-9.9,2.3c-5.8,5.1-5.5,6.7-5.5,6.7s-5.6,0.4-1.5-8.4L15.1,12z"/>
<path fill="#13161D" d="M20.9,26.8L18,23.6c0,0-2.4-1.5,4.6-8C29.5,9,31.7,12,31.7,12l2.6,3.3L20.9,26.8z"/>
<path fill="#11141C" d="M36.8,41.2c0,0-20.2-1.1-23.8,0.6c0,0-5.2-1.9,4.7,17.2c0,0,4.8-3.8,17.4-3.8c12.6,0,16.6,3.8,16.6,3.8
	s14-13.2,8.7-15.4c0,0-5.8-2.1-12.1-2.1L36.8,41.2z"/>
<path fill="#FFFFFF" d="M22,41.7c0,0-8.4-26.4,14.5-26.4c23.7,0,17.9,17.3,15.4,27c0,0-1.7,2.8-5.5,2.6l-20.6-0.7
	C25.8,44.1,22.5,43.5,22,41.7z"/>
<path fill="#90C5EB" d="M32.8,29.1h-5.3c0,0-1.6-6.5,3.1-6.5C30.5,22.7,26.7,29.1,32.8,29.1"/>
<path fill="#90C5EB" d="M41,29.7c0,0-0.7-7.1,3.4-7.1c0.4,0,0.7,0.1,1,0.2c0,0-5.7,6.9,1.6,6.9l-5.8,0"/>
<path fill="#E5E5E5" d="M41.6,29.7l4.9,0c0,0,1.2-5.3-2.2-5.3c-3.4,0-2.9,5.3-2.9,5.3"/>
<path fill="#E5E5E5" d="M28.3,29.1h4.4c0,0,1.1-5.2-2.2-5.2C27.2,24,28.3,29.1,28.3,29.1z"/>
<path fill="#13161D" d="M31.6,29.1c0.2-0.3,0.4-0.7,0.4-1.2c0-1-0.6-1.8-1.4-1.8c-0.8,0-1.4,0.8-1.4,1.8c0,0.5,0.1,0.9,0.4,1.2H31.6
	z"/>
<path fill="#13161D" d="M45.2,29.7c0.3-0.3,0.5-0.8,0.5-1.4c0-1-0.6-1.8-1.4-1.8c-0.8,0-1.4,0.8-1.4,1.8c0,0.6,0.2,1.1,0.5,1.4
	L45.2,29.7z"/>
<path fill="#13161D" d="M31.4,32.5c0,0,0.4,2.4,6.1,2.4s5.8-2.4,5.8-2.4s2.5,7.9-5.9,7.9C28.9,40.4,31.4,32.5,31.4,32.5z"/>
<path fill="#D35D68" d="M40.7,39.8c-0.9,0.4-2,0.6-3.4,0.6c-1.3,0-2.4-0.2-3.2-0.5c0,0,1.1-2.5,3.2-1.1c0,0,2.6-2,3.4,0.9V39.8z"/>
<path fill="#FFFFFF" d="M32.4,32.2c0,0-0.8,1.8-2.5,1.8l1.2-1.8H32.4z"/>
<path fill="#FFFFFF" d="M42.4,32.2c0,0,0.8,1.8,2.5,1.8l-1.2-1.8H42.4z"/>
<path fill="#FFFFFF" d="M59.4,43.4c-0.9-0.3-4.3-1.3-4.2-1.1c2.3,3-4.3,8.3-4.3,8.3c-17.7-4.3-29.2,0-29.2,0c-3.8-3-2.2-9.7-2.2-9.7
	c-1.8,0.1-4.6,0.1-4.6,0.4c-0.4,10.2,4.6,14.2,4.6,14.2c13.7-6.1,32.4-0.6,32.4-0.6c7.4-6.5,7.5-11.2,7.5-11.2V43.4z"/>
<path fill="#90C5EB" d="M32.3,44.3l-6.4-0.2c0,0-3.3-0.6-3.8-2.4c0,0-6.8-21.4,8.5-25.7c0,0-7.3,6.2-7.3,13.4s4.4,13.6,4.4,13.6
	S29.5,44.2,32.3,44.3z"/>
<path fill="#90C5EB" d="M32.9,40.4c0,0,4.1,2.6,8.7,0c0,0-0.5,2.1-4.5,2.1C33.3,42.5,32.9,40.4,32.9,40.4z"/>
<path fill="#90C5EB" d="M32.9,29.6c0,0,5.1-2.5,8.5,0.1C41.4,29.7,37.2,28.2,32.9,29.6z"/>
<path fill="#90C5EB" d="M46,18.4c0,0,6.1,2.2,6.1,9.2C52.1,27.6,53.5,19.4,46,18.4z"/>
<path fill="#90C5EB" d="M51,39.7c0,0-0.5,3.7-4.3,4C46.7,43.7,51.3,44.2,51,39.7z"/>
<path fill="#CF4450" d="M31.2,56.1c0,0,5.8-1.1,8.8,0.5c0,0,1.9,0.8,0.8,1.9c-1.1,1.1,0,0.4,0,0.4s-7,1.9-11.5-0.4
	C29.2,58.6,28.8,56.4,31.2,56.1z"/>
<path fill="#CF4450" d="M36.8,57.4c0,0-3.3,1.6,0,5.2c3.3,3.6,0,7.3,0,7.3S45.1,64.6,36.8,57.4z"/>
<path fill="#CF4450" d="M33.1,56.7c0,0,3.3,1.6,0,5.2c-3.3,3.6,0,7.3,0,7.3S24.8,63.9,33.1,56.7z"/>
<g>
</g>
<g>
</g>
<g>
</g>
<g>
</g>
<g>
</g>
<g>
</g>
<g>
</g>
<g>
</g>
<g>
</g>
<g>
</g>
<g>
</g>
<g>
</g>
<g>
</g>
<g>
</g>
<g>
</g>
<g>
</g>
</svg>
