<svg id="svg2" xmlns="http://www.w3.org/2000/svg" viewBox="0 0 360 120.1262"><defs><style>.cls-1{isolation:isolate;}.cls-2{fill:#ccc;}.cls-3{fill:#fc0;}</style></defs><title>Weyland-Yutani</title><g id="layer1"><g id="g4208-3-0"><g id="text2869-0-3" class="cls-1"><g class="cls-1"><path d="M3.88428,14.571.10352.32147H2.0376L4.20508,9.66229q.3501,1.46778.60254,2.916.54419-2.2837.6416-2.63379L8.16113.32147h2.27442l2.041,7.2124a38.28785,38.28785,0,0,1,1.1084,5.04444q.27172-1.35059.70947-3.10059L16.52979.32147h1.8955L14.51807,14.571H12.7002L9.69678,3.71405q-.37866-1.36084-.44727-1.67188-.22338.98145-.418,1.67188L5.80908,14.571Z"/><path d="M20.22363,14.571V.32147H30.52637V2.00311h-8.417V6.36737h7.88281V8.03924H22.10938v4.8501h8.74755V14.571Z"/><path d="M37.47607,14.571V8.53485L31.98438.32147h2.29394L37.0874,4.61786q.77784,1.20557,1.44824,2.41064.64161-1.11768,1.55518-2.51758L42.85156.32147h2.19629l-5.686,8.21338V14.571Z"/><path d="M46.66113,14.571V.32147h1.88575V12.88934h7.01757V14.571Z"/><path d="M56.24512,14.571,61.71729.32147H63.749l5.832,14.24951H67.43262l-1.66211-4.31543h-5.958L58.24756,14.571Zm4.11181-5.85156H65.1875l-1.4873-3.9458q-.68043-1.7981-1.01075-2.95508a18.24605,18.24605,0,0,1-.76757,2.72168Z"/><path d="M71.06738,14.571V.32147h1.93457l7.48389,11.188V.32147H82.294V14.571H80.35986L72.87549,3.37372V14.571Z"/><path d="M85.46289,14.571V.32147h4.90869A11.88718,11.88718,0,0,1,92.9082.52606a4.82514,4.82514,0,0,1,2.08985,1.02051,5.79912,5.79912,0,0,1,1.68652,2.43457,9.55985,9.55985,0,0,1,.55908,3.3872,9.9459,9.9459,0,0,1-.37939,2.87745,6.98246,6.98246,0,0,1-.97168,2.07519,5.166,5.166,0,0,1-1.29785,1.29248,5.27322,5.27322,0,0,1-1.70118.71436A9.69982,9.69982,0,0,1,90.605,14.571Zm1.88574-1.68164h3.04248a7.38726,7.38726,0,0,0,2.21094-.26221,3.168,3.168,0,0,0,1.27832-.73877,4.49552,4.49552,0,0,0,1.04492-1.80322,8.81247,8.81247,0,0,0,.374-2.7456,6.631,6.631,0,0,0-.73389-3.436,3.69537,3.69537,0,0,0-1.7832-1.60889,7.378,7.378,0,0,0-2.43994-.2915H87.34863Z"/><path d="M98.93457,10.29413V8.53485h5.375v1.75928Z"/><path d="M110.48145,14.571V8.53485L104.98975.32147h2.29394l2.80908,4.29639q.77784,1.20557,1.44825,2.41064.64159-1.11768,1.55517-2.51758L115.85693.32147h2.19629l-5.686,8.21338V14.571Z"/><path d="M129.09521.32147H130.981V8.55438a9.73666,9.73666,0,0,1-.48633,3.41162,4.15949,4.15949,0,0,1-1.7544,2.05567,6.20887,6.20887,0,0,1-3.32861.79248,6.84348,6.84348,0,0,1-3.27588-.69043,3.93627,3.93627,0,0,1-1.81738-1.99707,9.51108,9.51108,0,0,1-.54443-3.57227V.32147h1.88574V8.54461a8.02,8.02,0,0,0,.34472,2.73633,2.61947,2.61947,0,0,0,1.186,1.356,4.11462,4.11462,0,0,0,2.05566.47607,3.92651,3.92651,0,0,0,2.96436-.94287q.88476-.94263.88476-3.62549Z"/><path d="M137.74561,14.571V2.00311h-4.69483V.32147H144.3457V2.00311h-4.71435V14.571Z"/><path d="M143.2373,14.571,148.70947.32147h2.03174l5.832,14.24951H154.4248l-1.6621-4.31543h-5.958L145.23975,14.571Zm4.11182-5.85156h4.83057l-1.48731-3.9458q-.68042-1.7981-1.01074-2.95508a18.2449,18.2449,0,0,1-.76758,2.72168Z"/><path d="M158.06006,14.571V.32147h1.93457l7.48389,11.188V.32147h1.8081V14.571h-1.93408L159.86816,3.37372V14.571Z"/><path d="M172.77588,14.571V.32147h1.88574V14.571Z"/><path d="M193.68359,9.57489l1.88477.47656a6.3387,6.3387,0,0,1-2.13281,3.54248,5.87936,5.87936,0,0,1-3.7666,1.22022,6.76758,6.76758,0,0,1-3.74707-.938,5.855,5.855,0,0,1-2.19727-2.7168,9.69741,9.69741,0,0,1-.75293-3.81982,8.40524,8.40524,0,0,1,.85059-3.8833A5.82611,5.82611,0,0,1,186.24219.93915a7.07306,7.07306,0,0,1,3.45605-.86036,5.84638,5.84638,0,0,1,3.59668,1.08838,5.66452,5.66452,0,0,1,2.03125,3.062l-1.85742.4375a4.40453,4.40453,0,0,0-1.4375-2.26513,3.83848,3.83848,0,0,0-2.37207-.70947,4.608,4.608,0,0,0-2.74609.78759,4.15646,4.15646,0,0,0-1.54981,2.11377,8.49356,8.49356,0,0,0-.44726,2.73633,8.68557,8.68557,0,0,0,.52929,3.17334A3.94493,3.94493,0,0,0,187.09375,12.53a4.6175,4.6175,0,0,0,2.41992.67041,4.05086,4.05086,0,0,0,2.68164-.91358A4.67706,4.67706,0,0,0,193.68359,9.57489Z"/><path d="M197.31836,7.631a7.74048,7.74048,0,0,1,1.90527-5.55469A6.47706,6.47706,0,0,1,204.14258.069a6.82485,6.82485,0,0,1,3.55664.94287,6.16,6.16,0,0,1,2.416,2.62891,8.54516,8.54516,0,0,1,.83008,3.82519,8.39656,8.39656,0,0,1-.874,3.87793,5.96937,5.96937,0,0,1-2.47852,2.59033,7.082,7.082,0,0,1-3.46.87989,6.73691,6.73691,0,0,1-3.59668-.97217,6.25622,6.25622,0,0,1-2.40136-2.65332A8.04792,8.04792,0,0,1,197.31836,7.631Zm1.94434.0293a5.707,5.707,0,0,0,1.38574,4.0581,4.83221,4.83221,0,0,0,6.97851-.01465,6.057,6.057,0,0,0,1.375-4.24755,7.307,7.307,0,0,0-.58789-3.0376,4.52349,4.52349,0,0,0-1.7207-2.01221,4.66371,4.66371,0,0,0-2.541-.71435,4.82024,4.82024,0,0,0-3.44629,1.37548Q199.26318,4.44306,199.2627,7.66034Z"/><path d="M213.4043,14.571V.32147h6.31836a8.4121,8.4121,0,0,1,2.89648.38428,3.16266,3.16266,0,0,1,1.584,1.356,4.043,4.043,0,0,1,.59376,2.14795,3.58469,3.58469,0,0,1-.98243,2.55616,4.96725,4.96725,0,0,1-3.03222,1.32226,4.90128,4.90128,0,0,1,1.13769.70947,9.79272,9.79272,0,0,1,1.56446,1.895l2.47851,3.87842H223.5918l-1.88672-2.96435q-.82617-1.2832-1.36035-1.96338a4.26672,4.26672,0,0,0-.958-.95264,2.83342,2.83342,0,0,0-.85938-.37939,5.71268,5.71268,0,0,0-1.0498-.06788H215.291V14.571ZM215.291,6.61053h4.05273a6.06566,6.06566,0,0,0,2.02148-.26758,2.14219,2.14219,0,0,0,1.10743-.855,2.30568,2.30568,0,0,0,.37988-1.27832,2.126,2.126,0,0,0-.7334-1.66211,3.43715,3.43715,0,0,0-2.31836-.65136H215.291Z"/><path d="M227.752,14.571V.32147h5.375a12.9633,12.9633,0,0,1,2.167.13623,4.28957,4.28957,0,0,1,1.75878.666,3.48746,3.48746,0,0,1,1.14258,1.375,4.35678,4.35678,0,0,1,.43262,1.94433,4.37864,4.37864,0,0,1-1.15723,3.07617Q236.315,8.77826,233.292,8.778h-3.65527v5.793Zm1.88477-7.47461h3.68359A3.9071,3.9071,0,0,0,235.916,6.4162a2.4249,2.4249,0,0,0,.76757-1.915,2.57814,2.57814,0,0,0-.45117-1.53076,2.11814,2.11814,0,0,0-1.1914-.84082,8.06394,8.06394,0,0,0-1.75879-.12647h-3.64551Z"/></g></g><g id="g3834-3-33-2"><path id="path3876-3-4-5-2" class="cls-2" d="M290.65276,23.68935v7.63614L260.04547,60.77924,230.4234,31.32549l7.52866-7.63614h52.7007Z"/><path id="path3874-2-72-3" class="cls-3" d="M180.14972,23.62649v.02772l-21.86882.05536L100.34238,81.31593,40.57683,23.70959H.29945V37.606l80.33331,82.49251,37.89672.02774,61.62024-59.32274v-.02773L241.77,120.09837l37.89673-.02773L360,37.57813V23.68174H319.72261L259.95707,81.28819,202.01854,23.68185Z"/><path id="path3880-4-07-6" class="cls-2" d="M180.14972,81.31587l-26.90695,27.70974v11.07282h26.90695v-.02774h26.90695V108.99787L180.14972,81.31582Z"/><path id="path3876-3-2-5-38-2" class="cls-2" d="M69.64669,23.717v7.63614L100.254,60.80692,129.876,31.35317,122.34739,23.717Z"/></g></g></g></svg>