<?xml version="1.0" encoding="utf-8"?>
<!DOCTYPE svg PUBLIC "-//W3C//DTD SVG 1.1//EN" "http://www.w3.org/Graphics/SVG/1.1/DTD/svg11.dtd">
<svg version="1.1" id="Layer_1" xmlns="http://www.w3.org/2000/svg" xmlns:xlink="http://www.w3.org/1999/xlink" x="0px" y="0px"
	 width="130px" height="32px" viewBox="0 0 130 32" style="enable-background:new 0 0 130 32;" xml:space="preserve">
	 			<img src="static/img/logo-abn-amro.png"/>
<style type="text/css">
<![CDATA[
	.st0{fill:#868686;}
	.st1{fill:#F3C000;}
	.st2{fill:#009286;}
]]>
</style>
<g>
	<polygon class="st2" points="12,8 23.9,19.9 23.9,0.1 0.1,0.1 0.1,20 12,31.9 	"/>
	<polygon class="st1" points="12,31.9 12,8 23.9,20 	"/>
	<g>
		<path class="st0" d="M35,16l0.8-3.1h4l0.8,3.1h3.1L39.9,2.1H36L32.2,16H35z M39.2,10.8h-2.8l1.3-6h0L39.2,10.8z"/>
		<path class="st0" d="M49,9.9h1.7c1.5,0,1.9,0.8,1.9,2c0,1.9-1.4,2-2,2H49V9.9z M49,4.2h1.8c1,0,1.7,0.8,1.7,1.8
			c0,1.3-0.9,1.8-1.5,1.8H49V4.2z M51.2,16c1.2,0,4.3-0.2,4.3-3.7c0-1.9-0.5-3.2-2.6-3.5v0c1.6-0.3,2.4-1.5,2.4-3.1
			c0-3-1.8-3.6-4-3.6h-5.2V16H51.2z"/>
		<polygon class="st0" points="61.6,16 61.6,5.8 61.7,5.8 65.5,16 69.3,16 69.3,2.1 66.6,2.1 66.6,11.7 66.6,11.7 62.9,2.1 
			58.9,2.1 58.9,16 		"/>
		
			<rect x="72.5" y="6.7" transform="matrix(-0.7069 0.7073 -0.7073 -0.7069 131.7449 -38.5878)" class="st0" width="2.6" height="2.6"/>
		<path class="st0" d="M79.5,16l0.8-3.1h4l0.8,3.1h3.1L84.3,2.1h-3.8L76.7,16H79.5z M83.7,10.8h-2.8l1.3-6h0L83.7,10.8z"/>
		<polygon class="st0" points="93.3,16 93.3,5.3 93.4,5.3 95.9,16 98.7,16 101.4,5.3 101.4,5.3 101.4,16 104.2,16 104.2,2.1 
			99.7,2.1 97.4,11.6 97.4,11.6 95.2,2.1 90.5,2.1 90.5,16 		"/>
		<path class="st0" d="M110.9,4.2h1.3c0.9,0,1.5,0.5,1.5,1.8c0,0.9-0.3,2-1.5,2h-1.3V4.2z M110.9,10.2h0.8c2.2,0,2.1,1.4,2.1,3.1
			c0,0.9-0.1,1.8,0.3,2.7h2.8c-0.3-0.6-0.3-3.2-0.3-4.1c0-2.5-1.9-2.7-2.5-2.7v0c1.9-0.3,2.6-1.6,2.6-3.4c0-2.4-1.3-3.6-3.3-3.6H108
			V16h2.9V10.2z"/>
		<path class="st0" d="M124.5,14.2c-1.6,0-1.8-1.5-1.8-5.1s0.2-5.1,1.8-5.1s1.8,1.5,1.8,5.1S126.2,14.2,124.5,14.2z M124.5,16.2
			c4.8,0,4.8-3.5,4.8-7.2c0-3.7,0-7.2-4.8-7.2s-4.8,3.5-4.8,7.2C119.7,12.7,119.7,16.2,124.5,16.2z"/>
	</g>
</g>
</svg>
