<svg id="Layer_1" data-name="Layer 1" xmlns="http://www.w3.org/2000/svg" viewBox="0 0 554.23144 519.74226"><defs><style>.cls-1{fill:#c23036;}</style></defs><title>cyberdyne-systems</title><path d="M178.178,401.41618c-2.11887-.47842-4.286-.69687-6.40786-1.02854,2.19577-.40641,4.46609-.68754,6.67192-1.26687,3.52106-.92474,5.03268-2.98288,5.13687-6.96509.099-3.78257.11605-7.57439-.00276-11.3556-.17461-5.55161-3.04943-9.1614-8.026-10.2102a17.57,17.57,0,0,0-3.58652-.27916q-20.28576-.02754-40.57123-.01176h-1.908v61.38065c5.31824,0,10.47193.001,15.62561-.00015,9.39775-.0022,18.79591.04576,28.19324-.02709,6.00032-.04651,9.95386-3.87218,10.24218-10.03894.20591-4.40485.152-8.8349.01172-13.2459C183.42846,404.32106,181.74525,402.22171,178.178,401.41618Zm-32.29659-23.24181c2.122,0,4.16426-.00023,6.20636.00007,4.12154.00053,8.24322-.019,12.36462.01017,2.2265.01578,3.19759.914,3.265,3.37586.10861,3.9668.07966,7.94119.00193,11.90989-.03363,1.71942-.75815,3.21818-2.50972,3.24125-6.39738.0843-12.79614.03338-19.32817.03338Zm21.851,42.16368c-.04424,2.21036-.90837,3.37723-2.51923,3.39293-6.39876.0623-12.79848.02565-19.32638.02565v-19.1121c2.01495,0,3.94389-.00023,5.87256,0,4.17763.00053,8.35527-.018,12.53263.00926,2.4251.01586,3.38516.9387,3.443,3.58756C167.82284,412.27166,167.81305,416.30736,167.73242,420.33805Z"/><path d="M353.03253,370.41741a21.345,21.345,0,0,0-2.91823-.11367q-20.80424-.01-41.6082-.00478h-1.89366v61.38065c7.75464,0,15.31634.00213,22.878-.00053,7.393-.00265,14.78738.07277,22.179-.0409,6.1981-.0953,9.96172-3.9089,10.04386-10.59445q.24684-20.06392.00331-40.13393C361.64828,374.74266,358.471,371.172,353.03253,370.41741Zm-11.29831,53.36282c-6.18458.00971-12.36917.003-18.73568.003v-45.378a12.01634,12.01634,0,0,1,1.30352-.14591q8.76708-.051,17.53415-.07475c2.84132-.00311,3.54394.76684,3.54724,3.9234q.019,18.83434.00055,37.66869C345.381,423.028,344.68635,423.7756,341.73422,423.78023Z"/><path d="M291.1784,404.75668c5.41858-1.34086,7.6448-4.382,7.66106-10.51554.01172-4.41752.06106-8.83679-.02742-13.25235-.12239-6.097-3.31129-9.88832-8.79837-10.58747a23.22434,23.22434,0,0,0-2.91932-.09841q-20.20307-.00854-40.40613-.00395h-1.961v61.29772h16.32105V404.64476c3.636,0,7.11874.06723,10.59748-.03551,1.26286-.03734,1.76563.48684,2.19632,1.72647,2.77944,8.00182,5.65632,15.96267,8.45133,23.95811.36026,1.03112.80322,1.4285,1.83826,1.41431,4.7562-.065,9.51379-.0261,14.27082-.03278.42477-.0006.84953-.0607,1.43389-.10539-3.2297-8.953-6.392-17.71851-9.58987-26.58315C290.645,404.88841,290.91172,404.82262,291.1784,404.75668Zm-8.21607-11.766c-.04658,2.36022-.9336,3.689-2.68048,3.71534-6.34708.09576-12.696.03779-19.15287.03779V378.17437c2.34158,0,4.617-.00023,6.89244.00007,3.8397.00061,7.67939-.02215,11.51881.011,2.39616.02064,3.36945.99963,3.42431,3.63742Q283.08072,387.40429,282.96233,392.99073Z"/><path d="M479.675,419.15009c-.62516-1.071-.96585-1.64786-1.30048-2.229q-12.97035-22.52548-25.91479-45.06856a2.59717,2.59717,0,0,0-2.5891-1.58853c-5.32872.08233-10.65909.03217-15.98863.03923-.55212.00076-1.10423.06017-1.67867.09363v61.14748h7.463V381.85389c1.17672,2.03379,2.06732,3.56578,2.951,5.10256q12.45268,21.655,24.92743,43.29459c.34813.60248,1.04441,1.35694,1.5877,1.3659,5.95635.0978,11.91408.06138,18.0135.06138V370.41961h-7.471Z"/><path d="M191.46288,431.55737h45.812v-7.795H207.83755V404.5726H234.64v-7.86608H207.79882V378.16215h29.4951v-7.71568h-45.831Z"/><path d="M496.15426,431.54887h45.84537v-7.73434H512.585V404.55917h26.76266v-7.80325H512.54174V378.14333h29.48518V370.389H496.15426Z"/><path d="M34.75088,423.78106c-3.15032-.00265-3.82812-.7509-3.82908-4.2172q-.00518-18.55629-.00042-37.11257c.001-3.55911.656-4.27138,3.95271-4.27442q11.34936-.01025,22.69873-.0025c.60324-.00008,1.20649,0,1.784,0V370.299H57.35685q-15.39035.00012-30.781.00114c-8.78734.00387-12.0435,3.57891-12.05149,13.25439q-.01448,17.42016.00386,34.8403c.001,1.07088.048,2.146.14347,3.21166.55735,6.22238,3.64123,9.53609,9.31244,10.02187.62749.05372,1.26009.049,1.89049.04917q15.90634.00421,31.8127-.00152c.55487-.0003,1.10973-.0538,1.70016-.08445v-7.8081h-1.9379Q46.10024,423.78318,34.75088,423.78106Z"/><path d="M115.27453,370.27028a2.16292,2.16292,0,0,0-2.18047,1.35322Q106.47223,383.241,99.76442,394.799c-.32664.56636-.68263,1.11231-1.11691,1.81692-.42145-.668-.7514-1.1595-1.05185-1.672-4.47257-7.63024-8.9727-15.24121-13.38078-22.91629a2.96839,2.96839,0,0,0-3.03123-1.77c-4.00936.11845-8.02354.04128-12.03592.04128H64.15254c.46831.84689.77069,1.43009,1.10395,1.99091q9.40959,15.83148,18.79687,31.67911a6.257,6.257,0,0,1,.8068,2.95693c.06616,7.51.03611,15.02093.03611,22.53151v2.11528H101.9792v-2.14745c0-7.32134-.03749-14.64306.03969-21.96341a7.14894,7.14894,0,0,1,.88123-3.32183c6.13883-10.64848,12.34933-21.247,18.53667-31.86159.32815-.56287.62157-1.15033,1.06729-1.97938C119.92792,370.299,117.59875,370.36323,115.27453,370.27028Z"/><path d="M418.03311,370.26656a2.26828,2.26828,0,0,0-2.314,1.43548c-4.4078,7.74952-8.8743,15.45868-13.32537,23.17838-.32113.55726-.666,1.098-1.08466,1.78574-.45811-.75955-.77758-1.2769-1.086-1.80236q-6.80436-11.60255-13.58778-23.21988a2.235,2.235,0,0,0-2.17675-1.37372c-5.38743.06291-10.77568.02626-16.16339.034-.41815.0006-.836.07337-1.42148.12838.4424.78118.76022,1.36658,1.099,1.93674,6.24165,10.50165,12.50286,20.98942,18.699,31.52355a6.63669,6.63669,0,0,1,.85753,3.12667c.07194,7.50982.03831,15.02086.03831,22.53144,0,.668.00028,1.33608.00028,2.06156H404.6504v-2.28085c0-7.32126-.03363-14.643.03776-21.96341a6.76142,6.76142,0,0,1,.83685-3.14708q9.25911-16.04955,18.62929-32.02139c.32222-.55293.62405-1.12051,1.05763-1.90077C422.60711,370.299,420.31653,370.37567,418.03311,370.26656Z"/><path class="cls-1" d="M22.16292,349.92966c11.423-15.10235,22.42467-29.70312,33.48449-44.2597q55.16907-72.6118,110.37324-145.197c10.788-14.18884,21.67658-28.30258,32.32749-42.59351,2.54745-3.418,3.69494-3.00241,5.82229.35376q33.97576,53.60193,68.21173,107.03864a10.61417,10.61417,0,0,1,1.757,6.05969q-.079,57.492.02246,114.98392c.00736,2.964-.59015,4.05633-3.80523,4.05334q-122.98262-.11481-245.96545-.05639A18.01068,18.01068,0,0,1,22.16292,349.92966Z"/><path class="cls-1" d="M536.00457,350.25657H524.15606q-116.70347.00064-233.407.00146c-6.37308.00006-6.36628.00067-6.36622-6.54651q.00037-55.72778-.02719-111.45553a12.30669,12.30669,0,0,1,1.70777-7.10245q34.36038-53.62912,68.53689-107.37573c1.78293-2.8064,2.44489-3.67432,4.92948-.384Q400.32045,171.4122,441.416,225.20032q47.05608,61.79765,94.14526,123.57A6.52627,6.52627,0,0,1,536.00457,350.25657Z"/><path class="cls-1" d="M279.44289,12.0871c14.12857,18.5842,28.0203,36.85746,41.91266,55.13019q12.99582,17.09349,26.007,34.17533c1.35364,1.77157,2.521,3.14935.9032,5.67047q-34.37709,53.573-68.53659,107.24673c-1.67572.176-1.87613-1.23843-2.44379-2.12768q-33.32056-52.19829-66.64267-104.39557c-1.29282-2.02045-1.89722-3.36588-.15192-5.64908Q244.4576,57.70264,278.206,13.10073A9.71222,9.71222,0,0,1,279.44289,12.0871Z"/><path d="M408.70194,445.033c-.49753.00761-1.2182.78685-1.4397,1.38349-3.27444,8.811-6.47973,17.65284-9.706,26.48529-1.9499,5.33757-3.90778,10.6716-5.9676,16.29611-.37356-.98362-.64134-1.65754-.88735-2.341q-7.22533-20.09048-14.41515-40.1958a2.10812,2.10812,0,0,0-2.3634-1.72712c-5.78386.08187-11.56909.03566-17.35405.03566h-1.74v60.91771h7.44091V454.26022l.30139-.04244q9.26794,25.8463,18.55186,51.73733c3.24221,0,6.39241-.08579,9.53545.03974,1.37247.05488,1.97056-.42973,2.47608-1.83011q8.701-24.09564,17.52953-48.13616c.21653-.59242.48293-1.163.72591-1.74378q.167.051.33362.10215v51.43887h15.65429V444.97113C421.06251,444.97113,414.8814,444.93834,408.70194,445.033Z"/><path d="M113.779,466.41084a27.50457,27.50457,0,0,0-5.63013-.44413c-6.24172-.05134-12.48426-.00189-18.72625-.02918-2.64358-.01153-3.39235-.833-3.45434-3.67619-.03691-1.69161-.01763-3.385-.00744-5.07747.02149-3.64476.69616-4.38381,4.05353-4.38645q14.43167-.01131,28.8628-.00309h2.08517v-7.62545a1.6464,1.6464,0,0,0-.42811-.16744c-13.74351.00045-27.48813-.09567-41.23.06446-5.31415.062-8.66462,3.7022-8.99438,9.54263-.28926,5.122-.21213,10.272-.21075,15.40959.00248,9.26949,3.32431,12.887,11.75422,12.89728,6.5858.00807,13.17132-.00656,19.75685.00626,2.82071.0055,3.53092.77637,3.5739,3.90017.0336,2.44424.03994,4.89021-.00276,7.33414-.05592,3.19211-.78679,3.94964-3.72762,3.95137q-14.60318.00894-29.20606.00241h-2.051v7.84536c5.19432,0,10.28119.00136,15.36806-.00022,8.47537-.00272,16.95129.05059,25.42611-.03136,5.74529-.05557,9.55886-3.34169,9.7966-9.01829.30634-7.31213.25593-14.65916.00055-21.97618A8.5026,8.5026,0,0,0,113.779,466.41084Z"/><path d="M230.78478,466.07128c-1.08294-.09665-2.17359-.11641-3.26094-.11844q-8.93323-.01639-17.867-.00535c-.40111,0-.80194.002-1.20278-.00053-3.24551-.01976-3.88079-.72285-3.90007-4.33526-.008-1.50449-.01074-3.00906.00138-4.51348.02755-3.52043.73-4.29665,3.95985-4.29989q14.51681-.01425,29.03416-.004h1.9758v-7.8247c-2.4287,0-4.71552-.00121-7.00234.00022-11.33878.007-22.67812-.04757-34.01607.0481-5.80425.04893-9.26519,3.52918-9.62443,9.86311-.29752,5.24658-.22617,10.52422-.17962,15.78662.07549,8.54461,3.50145,12.198,11.30766,12.2484.40056.00264.80167.001,1.2025.00113,6.35659.00022,12.71319-.01,19.06978.00535,2.7232.00656,3.44525.78482,3.49346,3.79689.04022,2.50666.04573,5.01566-.00331,7.522-.0606,3.09259-.80277,3.86293-3.6312,3.86519q-14.68911.01131-29.37824.00309H188.8198v7.84536c5.00147,0,9.86575.00114,14.73-.00022,8.64727-.00226,17.29509.04976,25.94154-.0279,6.22656-.056,9.73186-3.44783,10.009-10.22913.27632-6.7513.2102-13.5387-.07245-20.29188C239.196,469.86146,235.84631,466.52294,230.78478,466.07128Z"/><path d="M485.90727,475.53173c-.24161-5.76021-3.60944-9.1267-8.88116-9.46008-2.68353-.1697-5.38027-.11082-8.071-.11972-4.81056-.01606-9.62112.0147-14.4314-.01327-2.72071-.0159-3.44442-.83005-3.49483-3.82456-.02783-1.62934-.01378-3.25973-.00441-4.88952.02038-3.67717.68734-4.42384,4.0166-4.42678q14.43168-.01268,28.86281-.00347h2.11988v-7.8247c-4.02294,0-7.96048-.00227-11.898.00045-9.73517.00663-19.47116-.05428-29.20578.05006-5.72188.06129-9.20211,3.54388-9.55831,9.73517-.2945,5.1212-.20662,10.27241-.1978,15.41012.01515,9.11524,3.37114,12.73843,11.7162,12.74982,6.70012.00912,13.40053-.01131,20.10066.01123,2.40913.00814,3.18738.82771,3.25295,3.479.06364,2.56833.05152,5.1405.01212,7.70989-.04959,3.222-.77522,3.98974-3.691,3.9917q-14.60317.00995-29.20634.00271h-2.09591v7.84536c4.14416,0,8.1952.00106,12.24624-.00015,9.50652-.00294,19.013.05082,28.519-.03113,6.147-.053,9.66079-3.44437,9.93931-10.1006C486.2395,489.07232,486.19074,482.28438,485.90727,475.53173Z"/><path d="M301.53985,505.8225h45.81877V498.064H317.90655V479.09416c.7507,0,1.41931,0,2.08764-.00008,7.73155-.00007,15.46311.01606,23.19438-.03483.54547-.00362,1.54191-.46931,1.55981-.77373.13279-2.28486.07246-4.58322.07246-7.03379H317.92308V452.75746H347.3859v-7.70121h-45.846Z"/><path d="M177.42757,444.93962a2.27007,2.27007,0,0,0-2.32649,1.39925c-4.40284,7.70136-8.86849,15.35968-13.31678,23.03-.32232.55608-.66145,1.10062-1.08239,1.79927-.45814-.744-.78074-1.25005-1.08653-1.76814-4.534-7.685-9.08584-15.35749-13.57408-23.07439a2.34432,2.34432,0,0,0-2.34137-1.38515c-5.26952.06544-10.54042.02706-15.81049.03287-.48073.00053-.96118.05217-1.629.091.44767.79325.759,1.37512,1.09616,1.93874,6.17726,10.328,12.38288,20.636,18.49953,31.0066a8.07952,8.07952,0,0,1,1.05016,3.793c.09779,7.33534.04766,14.673.04766,22.0098v2.00931h17.073v-2.1717c.00027-7.14868-.04959-14.29826.046-21.44543a8.25292,8.25292,0,0,1,1.011-3.81672c5.18908-9.0106,10.47679-17.95327,15.73364-26.9172,1.20057-2.04738,2.39674-4.09785,3.80227-6.501C181.98854,444.9697,179.70475,445.04012,177.42757,444.93962Z"/><path d="M245.401,452.7828h17.13779v53.02183H278.935v-53.105h16.91244v-7.61776H245.401Z"/></svg>