<svg id="Layer_1" data-name="Layer 1" xmlns="http://www.w3.org/2000/svg" viewBox="0 0 954.68335 251.36922"><defs><style>.cls-1{fill:#27d6f2;}.cls-2{fill:#326ce5;}.cls-3{fill:#fff;}</style></defs><title>Kubernetes_Community_Days_Logo</title><path class="cls-1" d="M785.28821,111.37691c-.11194-25.08624,18.70886-43.941,43.88281-43.97511,24.54144-.02911,43.44977,18.84015,43.55206,43.44989a48.05883,48.05883,0,0,1-.41266,6.44141h10.80146a49.79808,49.79808,0,0,0,.3374-5.8479c-.09247-29.9267-24.96954-54.91083-54.56537-54.80359-29.53729.10687-54.35113,25.04254-54.33166,54.58954a51.32528,51.32528,0,0,0,.37671,6.062h10.76049A47.99423,47.99423,0,0,1,785.28821,111.37691Z"/><path class="cls-1" d="M863.719,56.26217a4.84366,4.84366,0,0,0,4.46076-2.3349c3.40027-5.80335,6.82971-11.59687,10.05975-17.49286,1.61011-2.94293.535-5.44318-2.24743-7.07764a4.702,4.702,0,0,0-6.87842,1.68286c-3.54138,5.71607-6.98059,11.51435-10.07434,17.47827a5.14664,5.14664,0,0,0,4.67968,7.74427Z"/><path class="cls-1" d="M790.16772,54.30733c1.40589,2.26685,3.95972,2.49042,6.30927,1.51776a4.96464,4.96464,0,0,0,3.17664-4.84045,3.439,3.439,0,0,0-.1363-1.30847c-3.69708-6.46485-7.24334-13.03211-11.25647-19.29743-1.46417-2.2865-4.28082-2.413-6.71307-.84649a4.83336,4.83336,0,0,0-1.92145,6.55243C782.89038,42.29177,786.47064,48.34334,790.16772,54.30733Z"/><path class="cls-1" d="M748.58447,70.73488c6.01251,3.619,12.02027,7.26264,18.22254,10.517,2.58783,1.35236,5.3266.38416,6.75683-2.34,1.27448-2.42719,1.0506-5.13678-1.39129-6.64-6.09522-3.75525-12.27326-7.41851-18.64576-10.66307-3.157-1.61012-6.6206.98748-6.927,4.9812A4.2743,4.2743,0,0,0,748.58447,70.73488Z"/><path class="cls-1" d="M889.32428,81.66311a3.43384,3.43384,0,0,0,1.182-.14582A131.39382,131.39382,0,0,0,910.12976,70.0226c2.03827-1.508,1.96533-4.22265.394-6.38739-1.49817-2.08667-3.75531-3.31256-6.11462-2.04773-6.31909,3.371-12.5213,6.97553-18.636,10.702-2.1015,1.28412-2.35937,3.64338-1.615,5.92C884.94135,80.58327,886.73633,81.65835,889.32428,81.66311Z"/><path class="cls-1" d="M829.07556,47.01143c3.21063-.08282,5.0835-2.00915,5.16132-5.32208.073-3.0694.01465-6.13879.01465-9.20856.00476-3.507.09234-7.0144-.02436-10.52172-.09735-3.07923-1.795-4.95691-4.90338-5.10767-3.28363-.16064-5.497,1.62463-5.61377,4.84991-.253,6.71277-.24316,13.4502-.03888,20.16321a4.94059,4.94059,0,0,0,5.40442,5.14691Z"/><path class="cls-1" d="M899.01874,105.77517c-3.40033.01458-5.7937,1.63922-5.925,5.11242-.13141,3.7262,2.34955,5.49695,5.87634,5.6576,3.0647.13629,6.14392.02911,9.2135.03381,3.0694.00508,6.14374.0829,9.20838-.01928,3.5755-.11194,5.94452-1.84375,5.86187-5.61865-.0827-3.57032-2.38372-5.132-5.818-5.14661C911.30164,105.77517,905.16266,105.75081,899.01874,105.77517Z"/><path class="cls-1" d="M739.56952,116.42879c6.7276.28235,13.46991.25293,20.19751.03412a5.04238,5.04238,0,0,0,5.1709-5.46277c-.068-3.1864-2.08679-5.07861-5.38971-5.1662-3.2204-.08758-6.44068-.01959-9.66583-.01959v.01489c-3.36139,0-6.73737-.10217-10.09882.03382-3.07434.117-5.00067,1.91687-5.15637,4.92779C734.46185,114.03542,736.41742,116.29281,739.56952,116.42879Z"/><path class="cls-2" d="M282.45743,114.67437q-1.82081-2.92239-4.291-6.31739-2.47046-3.394-5.32373-6.84375Q269.98916,98.065,266.871,94.901a63.90766,63.90766,0,0,0-6.23535-5.58985v25.36329h-13.48V54.79058h13.48V77.29741q5.19873-5.46093,10.5625-11.42285,5.3628-5.96044,9.90625-11.084h15.99707q-6.11206,7.28173-12.29883,13.999-6.18529,6.71923-13.01953,13.52344a102.67051,102.67051,0,0,1,13.86231,14.2207,177.53968,177.53968,0,0,1,12.83886,18.14063Z"/><path class="cls-2" d="M341.25723,113.1187a71.49278,71.49278,0,0,1-8.46826,1.77149,69.63646,69.63646,0,0,1-10.88769.82128,25.84649,25.84649,0,0,1-9.63526-1.55565,14.61991,14.61991,0,0,1-6.0918-4.36328,17.014,17.014,0,0,1-3.19726-6.69728,35.96815,35.96815,0,0,1-.95068-8.55468V69.22124h12.87548V92.98491q0,6.22119,1.64161,8.98731,1.64063,2.76564,6.13525,2.76465,1.38135,0,2.938-.12989,1.55567-.12888,2.76513-.30176v-35.084h12.87549Z"/><path class="cls-2" d="M395.60977,91.9478a28.73974,28.73974,0,0,1-1.59863,9.85157,20.81349,20.81349,0,0,1-4.623,7.51757,20.31339,20.31339,0,0,1-7.43115,4.7959,27.9257,27.9257,0,0,1-10.02393,1.68457q-2.33349,0-4.88232-.21582-2.54956-.2168-5.01172-.56152-2.46314-.34571-4.70947-.82129-2.24853-.47316-3.9751-.99316V49.69292l12.87549-2.07422V70.25835a24.16253,24.16253,0,0,1,4.49316-1.46875,23.07171,23.07171,0,0,1,5.01221-.51855A20.50964,20.50964,0,0,1,384.29,69.95659a16.76433,16.76433,0,0,1,6.22168,4.7959,21.5484,21.5484,0,0,1,3.80224,7.47461A34.089,34.089,0,0,1,395.60977,91.9478ZM382.475,91.6021q0-12.44238-9.15967-12.44336a15.19071,15.19071,0,0,0-3.93164.51856,11.18321,11.18321,0,0,0-3.15381,1.29687v23.417q.95.1743,2.41943.30274,1.46852.12888,3.19727.12988,5.26977,0,7.94971-3.62988Q382.474,97.56547,382.475,91.6021Z"/><path class="cls-2" d="M403.38614,92.29351a27.77591,27.77591,0,0,1,1.85791-10.585,22.68462,22.68462,0,0,1,4.88184-7.56153,20.31443,20.31443,0,0,1,6.95654-4.58008,21.79216,21.79216,0,0,1,8.07959-1.55468q9.67675,0,15.29443,5.91894,5.61621,5.91945,5.61719,17.41211,0,1.12353-.08643,2.46289-.08715,1.34034-.17285,2.376H416.60684a8.553,8.553,0,0,0,3.71582,6.30859q3.28272,2.332,8.814,2.333a37.24961,37.24961,0,0,0,6.95605-.64844,26.17829,26.17829,0,0,0,5.57373-1.59863l1.72852,10.456a17.80064,17.80064,0,0,1-2.76563,1.03711,36.35,36.35,0,0,1-3.84521.90723q-2.11821.3882-4.53662.64746a45.39859,45.39859,0,0,1-4.83887.25977,28.65627,28.65627,0,0,1-10.67187-1.81446,20.78125,20.78125,0,0,1-7.51807-4.96875,19.713,19.713,0,0,1-4.40674-7.47461A29.603,29.603,0,0,1,403.38614,92.29351Zm30.24414-4.92579a13.36148,13.36148,0,0,0-.562-3.19628,8.00858,8.00858,0,0,0-1.46875-2.76563,7.84839,7.84839,0,0,0-2.50586-1.9873,8.16687,8.16687,0,0,0-3.75928-.77832,8.63846,8.63846,0,0,0-3.71533.73535,7.67628,7.67628,0,0,0-2.59229,1.94336,8.70421,8.70421,0,0,0-1.59863,2.8086,18.41426,18.41426,0,0,0-.82129,3.24022Z"/><path class="cls-2" d="M483.40323,80.62847q-1.72924-.43213-4.06152-.90723a25.12981,25.12981,0,0,0-5.01172-.47559,23.33091,23.33091,0,0,0-2.895.21582,17.072,17.072,0,0,0-2.54883.47559v34.73731H456.01065V71.64116a77.78629,77.78629,0,0,1,8.166-2.29,47.06778,47.06778,0,0,1,10.499-1.08007q1.0371,0,2.50586.12988,1.4685.12891,2.938.34571,1.4685.2168,2.938.51856a13.87149,13.87149,0,0,1,2.50586.73437Z"/><path class="cls-2" d="M492.47647,70.7769a72.23916,72.23916,0,0,1,8.46777-1.77148,69.64744,69.64744,0,0,1,10.88868-.82031,26.55558,26.55558,0,0,1,9.63473,1.51172,14.491,14.491,0,0,1,6.0918,4.27733,16.68954,16.68954,0,0,1,3.19726,6.56738,34.943,34.943,0,0,1,.95118,8.46875v25.66407h-12.876V90.565q0-6.22119-1.6416-8.81347-1.64209-2.59276-6.13574-2.59278-1.38282,0-2.9375.12988-1.55566.13039-2.76563.30275v35.083h-12.875Z"/><path class="cls-2" d="M541.21179,92.29351a27.78657,27.78657,0,0,1,1.85742-10.585A22.68767,22.68767,0,0,1,547.952,74.147a20.30727,20.30727,0,0,1,6.95605-4.58,21.79128,21.79128,0,0,1,8.0791-1.55468q9.67676,0,15.29492,5.91894,5.61622,5.91945,5.61719,17.41211,0,1.12351-.08691,2.46289-.08643,1.34034-.17285,2.376h-29.207a8.55607,8.55607,0,0,0,3.71582,6.30858q3.2827,2.332,8.81445,2.333a37.25429,37.25429,0,0,0,6.95605-.64843,26.18973,26.18973,0,0,0,5.57325-1.59864l1.72851,10.456a17.78354,17.78354,0,0,1-2.76562,1.03711,36.427,36.427,0,0,1-3.84473.90723q-2.11964.38818-4.53711.64746a45.3954,45.3954,0,0,1-4.83887.25977,28.65823,28.65823,0,0,1-10.67187-1.81446,20.7758,20.7758,0,0,1-7.51758-4.96875,19.70189,19.70189,0,0,1-4.40723-7.47461A29.61728,29.61728,0,0,1,541.21179,92.29351Zm30.2442-4.92579a13.40934,13.40934,0,0,0-.56152-3.19629,8.01017,8.01017,0,0,0-1.46973-2.76563,7.83186,7.83186,0,0,0-2.50586-1.98729,8.16038,8.16038,0,0,0-3.75878-.77833,8.64239,8.64239,0,0,0-3.71583.73536,7.68865,7.68865,0,0,0-2.59179,1.94336,8.70382,8.70382,0,0,0-1.59863,2.80858,18.3732,18.3732,0,0,0-.82129,3.24023Z"/><path class="cls-2" d="M593.40515,57.9019l12.875-2.07421V69.22124h15.46777V79.93706H606.28015V95.92339a12.71652,12.71652,0,0,0,1.42578,6.48047q1.4253,2.41992,5.7461,2.41992a24.54627,24.54627,0,0,0,4.27734-.38965,21.91874,21.91874,0,0,0,4.01855-1.08008l1.81446,10.02442a36.49894,36.49894,0,0,1-5.18457,1.64161,30.2622,30.2622,0,0,1-6.999.69139,23.04008,23.04008,0,0,1-8.72753-1.42578,13.686,13.686,0,0,1-5.53125-3.97558,14.794,14.794,0,0,1-2.89454-6.17774,36.4438,36.4438,0,0,1-.82031-8.03613Z"/><path class="cls-2" d="M628.31531,92.29351a27.78542,27.78542,0,0,1,1.85742-10.585,22.68765,22.68765,0,0,1,4.88281-7.56153,20.30762,20.30762,0,0,1,6.95606-4.58008,21.79141,21.79141,0,0,1,8.0791-1.55468q9.67676,0,15.29492,5.91894,5.61621,5.91945,5.61719,17.41211,0,1.12353-.08692,2.46289-.08641,1.34034-.17285,2.376H641.536a8.55615,8.55615,0,0,0,3.71582,6.30859q3.28272,2.332,8.81445,2.333a37.25441,37.25441,0,0,0,6.95606-.64844,26.19037,26.19037,0,0,0,5.57324-1.59863l1.72852,10.456a17.78327,17.78327,0,0,1-2.76563,1.03711,36.42434,36.42434,0,0,1-3.84472.90723q-2.11964.3882-4.53711.64746a45.39554,45.39554,0,0,1-4.83887.25977,28.65828,28.65828,0,0,1-10.67188-1.81446,20.77513,20.77513,0,0,1-7.51757-4.96875,19.70176,19.70176,0,0,1-4.40723-7.47461A29.61646,29.61646,0,0,1,628.31531,92.29351Zm30.24414-4.92579a13.40986,13.40986,0,0,0-.56153-3.19628,8.01031,8.01031,0,0,0-1.46972-2.76563,7.83224,7.83224,0,0,0-2.50586-1.9873,8.16041,8.16041,0,0,0-3.75879-.77832,8.64251,8.64251,0,0,0-3.71582.73535,7.689,7.689,0,0,0-2.5918,1.94336,8.70421,8.70421,0,0,0-1.59863,2.8086,18.37375,18.37375,0,0,0-.82129,3.24022Z"/><path class="cls-2" d="M693.98718,105.42827a12.8401,12.8401,0,0,0,5.0127-.6914,2.66979,2.66979,0,0,0,1.46875-2.67872,3.282,3.282,0,0,0-1.90137-2.72168,36.19477,36.19477,0,0,0-5.78906-2.63574,58.62779,58.62779,0,0,1-5.48731-2.333,16.11532,16.11532,0,0,1-4.1914-2.89453,11.69948,11.69948,0,0,1-2.67871-4.01855,14.854,14.854,0,0,1-.9502-5.61718,12.14739,12.14739,0,0,1,4.75195-10.10937q4.752-3.71485,13.04883-3.71582a41.89359,41.89359,0,0,1,7.9502.73437,37.1896,37.1896,0,0,1,6.04883,1.59863l-2.24707,10.02344a47.63133,47.63133,0,0,0-4.88282-1.38282,26.59533,26.59533,0,0,0-5.91894-.60449q-6.0499,0-6.04883,3.37011a3.47782,3.47782,0,0,0,.25977,1.38282,2.95009,2.95009,0,0,0,1.03613,1.166,14.55789,14.55789,0,0,0,2.11719,1.21582q1.33876.65333,3.41406,1.43653a52.82488,52.82488,0,0,1,6.999,3.09278,16.72884,16.72884,0,0,1,4.36328,3.292,10.17534,10.17534,0,0,1,2.24707,3.92382,17.42017,17.42017,0,0,1,.64844,4.999q-.00009,6.72657-5.05566,10.17579-5.05527,3.44678-14.30078,3.44825a41.09577,41.09577,0,0,1-10.06739-1.03711,40.66938,40.66938,0,0,1-5.57324-1.72853l2.16016-10.456a42.1512,42.1512,0,0,0,6.74023,2.03125A32.73342,32.73342,0,0,0,693.98718,105.42827Z"/><path class="cls-2" d="M274.46182,196.57569q-14.6045,0-22.251-8.123-7.648-8.12109-7.64747-23.07226a35.47655,35.47655,0,0,1,2.333-13.26368,28.55948,28.55948,0,0,1,6.39453-9.85058,26.71471,26.71471,0,0,1,9.67824-6.09277,34.89713,34.89713,0,0,1,12.18359-2.07326,39.09276,39.09276,0,0,1,6.91309.56152,45.1618,45.1618,0,0,1,5.44384,1.2959,26.9156,26.9156,0,0,1,3.88868,1.5127q1.55565.77636,2.24658,1.209l-3.88819,10.88868a32.65258,32.65258,0,0,0-6.438-2.50684,30.75758,30.75758,0,0,0-8.33838-1.03613,18.44053,18.44053,0,0,0-6.09229,1.03613,13.785,13.785,0,0,0-5.271,3.32715,16.55536,16.55536,0,0,0-3.67237,5.919,24.82538,24.82538,0,0,0-1.38281,8.81445,31.44312,31.44312,0,0,0,.90723,7.7334,16.398,16.398,0,0,0,2.938,6.17871,14.07645,14.07645,0,0,0,5.31446,4.10449,18.89966,18.89966,0,0,0,7.9497,1.5127,36.23385,36.23385,0,0,0,5.27149-.34571,38.75477,38.75477,0,0,0,4.14746-.82129,21.49219,21.49219,0,0,0,3.19727-1.08006q1.38129-.60354,2.50585-1.12305l3.71583,10.80176A31.5388,31.5388,0,0,1,286.473,195.193,46.88118,46.88118,0,0,1,274.46182,196.57569Z"/><path class="cls-2" d="M343.76407,172.55323a29.56182,29.56182,0,0,1-1.55518,9.80762,21.31256,21.31256,0,0,1-4.49365,7.60449,20.21165,20.21165,0,0,1-7.04248,4.88184,23.52025,23.52025,0,0,1-9.20312,1.72851,23.27894,23.27894,0,0,1-9.11622-1.72851,20.18494,20.18494,0,0,1-7.04248-4.88184,22.3205,22.3205,0,0,1-4.58007-7.60449,28.13467,28.13467,0,0,1-1.64161-9.80762,27.13857,27.13857,0,0,1,1.68506-9.76465,22.12893,22.12893,0,0,1,4.666-7.51757,20.96486,20.96486,0,0,1,7.08594-4.83985,22.82043,22.82043,0,0,1,8.94335-1.72754,23.05682,23.05682,0,0,1,9.03028,1.72754,20.52877,20.52877,0,0,1,7.04248,4.83985,21.97083,21.97083,0,0,1,4.58008,7.51757A27.81249,27.81249,0,0,1,343.76407,172.55323Zm-13.13477,0q0-5.96337-2.376-9.376a7.77282,7.77282,0,0,0-6.7837-3.41309,7.87814,7.87814,0,0,0-6.82617,3.41309q-2.42066,3.41457-2.41992,9.376,0,5.96194,2.41992,9.46192a7.81816,7.81816,0,0,0,6.82617,3.5,7.71506,7.71506,0,0,0,6.7837-3.5Q330.62858,178.51565,330.6293,172.55323Z"/><path class="cls-2" d="M378.67422,171.25636q0-6.22119-1.59863-8.81348-1.60034-2.59276-5.4873-2.59277-1.21069,0-2.50586.12988-1.29639.13037-2.50586.30273v35.083H353.70108V151.46829q1.64063-.43066,3.84522-.90723,2.20385-.47314,4.6665-.86426,2.4624-.38815,5.05517-.60449,2.592-.21533,5.09815-.21582a21.4387,21.4387,0,0,1,7.99316,1.25293,18.09979,18.09979,0,0,1,5.05518,2.98047,24.07455,24.07455,0,0,1,12.96143-4.2334,22.72724,22.72724,0,0,1,8.94384,1.51172,13.49188,13.49188,0,0,1,5.57373,4.27734,16.202,16.202,0,0,1,2.85157,6.56739,42.42556,42.42556,0,0,1,.77734,8.46875v25.66406h-12.875V171.25636q0-6.22119-1.59863-8.81348-1.60035-2.59276-5.48731-2.59277a11.59531,11.59531,0,0,0-2.895.51855,11.27534,11.27534,0,0,0-3.06738,1.29688,19.74225,19.74225,0,0,1,.77783,4.19043q.17208,2.20313.17285,4.71v24.79981H378.67422Z"/><path class="cls-2" d="M453.161,171.25636q0-6.22119-1.59863-8.81348-1.60035-2.59276-5.48731-2.59277-1.21069,0-2.50586.12988-1.29637.13037-2.50586.30273v35.083H428.1879V151.46829q1.64063-.43066,3.84521-.90723,2.20386-.47314,4.66651-.86426,2.4624-.38815,5.05517-.60449,2.592-.21533,5.09815-.21582a21.43873,21.43873,0,0,1,7.99316,1.25293,18.10027,18.10027,0,0,1,5.05518,2.98047,24.07454,24.07454,0,0,1,12.96142-4.2334,22.72732,22.72732,0,0,1,8.94385,1.51172,13.492,13.492,0,0,1,5.57373,4.27734,16.20247,16.20247,0,0,1,2.852,6.56739,42.4592,42.4592,0,0,1,.77734,8.46875v25.66406H478.13419V171.25636q0-6.22119-1.59864-8.81348-1.60034-2.59276-5.4873-2.59277a11.59531,11.59531,0,0,0-2.895.51855,11.2752,11.2752,0,0,0-3.06738,1.29688,19.74225,19.74225,0,0,1,.77783,4.19043q.17207,2.20313.17285,4.71v24.79981H453.161Z"/><path class="cls-2" d="M541.47449,193.81008a71.487,71.487,0,0,1-8.46778,1.77149,69.64425,69.64425,0,0,1-10.88867.82129,25.8416,25.8416,0,0,1-9.63476-1.55567,14.62275,14.62275,0,0,1-6.0918-4.36328,17.00734,17.00734,0,0,1-3.19727-6.69726,35.96748,35.96748,0,0,1-.95117-8.55469V149.91261h12.876v23.76367q0,6.22122,1.6416,8.9873,1.64063,2.76566,6.13574,2.76465,1.38135,0,2.9375-.12988,1.55567-.12888,2.76563-.30176v-35.084h12.875Z"/><path class="cls-2" d="M553.57117,151.46829a72.21836,72.21836,0,0,1,8.46875-1.77149,69.62788,69.62788,0,0,1,10.88769-.82031,26.55565,26.55565,0,0,1,9.63477,1.51172,14.491,14.491,0,0,1,6.09179,4.27734,16.69042,16.69042,0,0,1,3.19727,6.56739,34.94244,34.94244,0,0,1,.95117,8.46875v25.66406h-12.876V171.25636q0-6.22119-1.64161-8.81348-1.64208-2.59276-6.13574-2.59277-1.3828,0-2.9375.12988-1.55566.13037-2.76562.30273v35.083h-12.875Z"/><path class="cls-2" d="M618.55164,136.77883a7.06452,7.06452,0,0,1-2.29,5.57325,8.19748,8.19748,0,0,1-10.80078,0,7.92805,7.92805,0,0,1,0-11.14747,8.19745,8.19745,0,0,1,10.80078,0A7.07068,7.07068,0,0,1,618.55164,136.77883Zm-1.21,58.58692h-12.875V149.91261h12.875Z"/><path class="cls-2" d="M629.00671,138.59329l12.875-2.07422v13.39355h15.46778v10.71582H641.88171v15.98633a12.71648,12.71648,0,0,0,1.42579,6.48047q1.42529,2.41992,5.74609,2.41992a24.54616,24.54616,0,0,0,4.27734-.38963,21.91986,21.91986,0,0,0,4.01856-1.08008l1.81445,10.02441a36.49766,36.49766,0,0,1-5.18457,1.64161,30.26158,30.26158,0,0,1-6.999.6914,23.04049,23.04049,0,0,1-8.72754-1.42578,13.68593,13.68593,0,0,1-5.53125-3.97558,14.7939,14.7939,0,0,1-2.89453-6.17774,36.44381,36.44381,0,0,1-.82032-8.03613Z"/><path class="cls-2" d="M709.10828,149.91261q-3.89805,13.13675-8.14258,24.62793-4.24521,11.49318-9.27051,22.29394a50.539,50.539,0,0,1-3.63477,6.61035A20.37362,20.37362,0,0,1,684.079,207.939a14.05189,14.05189,0,0,1-4.88867,2.5918,22.14516,22.14516,0,0,1-6.35938.82129,26.011,26.011,0,0,1-5.583-.56152,25.03248,25.03248,0,0,1-4.19726-1.25293l2.24707-10.28321a22.11488,22.11488,0,0,0,3.54394.9502,19.99575,19.99575,0,0,0,3.28711.25977,7.19561,7.19561,0,0,0,5.31543-1.8584,14.94807,14.94807,0,0,0,3.15625-5.1416q-4.41065-8.63964-8.81933-19.39942a241.1435,241.1435,0,0,1-8.29785-24.15234H677.1366q.86572,3.37061,2.04,7.30273,1.17042,3.93311,2.47364,7.94922,1.29931,4.01806,2.64551,7.82031,1.34619,3.80418,2.56152,6.91309,1.12647-3.1113,2.34277-6.91309,1.21582-3.80127,2.38574-7.82031,1.17042-4.01806,2.25586-7.94922,1.084-3.93163,1.95313-7.30273Z"/><path class="cls-2" d="M789.98914,165.3804a35.02,35.02,0,0,1-2.41993,13.56738,25.12928,25.12928,0,0,1-6.86914,9.5918,29.30166,29.30166,0,0,1-10.84472,5.70312,50.31669,50.31669,0,0,1-14.34473,1.90039q-3.63,0-8.46875-.30174a69.376,69.376,0,0,1-9.50488-1.25293V136.26026a79.87432,79.87432,0,0,1,9.72168-1.167q5.05362-.30177,8.68359-.30274a52.48672,52.48672,0,0,1,13.95606,1.72852,28.58167,28.58167,0,0,1,10.75781,5.44433,24.2134,24.2134,0,0,1,6.91308,9.50489A36.02833,36.02833,0,0,1,789.98914,165.3804Zm-38.97168,19.01074q.94912.08788,2.20312.12988,1.25088.044,2.98145.043,10.11025,0,14.99218-5.09766,4.88078-5.09765,4.88282-14.08593-.00009-9.41748-4.667-14.25782-4.66562-4.8384-14.77636-4.83886-1.38291,0-2.85157.043a27.3035,27.3035,0,0,0-2.76464.21679Z"/><path class="cls-2" d="M816.69031,148.70362a29.81455,29.81455,0,0,1,9.50488,1.2959,14.77144,14.77144,0,0,1,6.0918,3.71582,13.67619,13.67619,0,0,1,3.24121,5.876,29.02862,29.02862,0,0,1,.95019,7.69043v26.78808q-2.76717.605-7.69043,1.42579a73.961,73.961,0,0,1-11.9248.82031,37.79148,37.79148,0,0,1-7.99316-.77735,17.35044,17.35044,0,0,1-6.17872-2.54882,11.6582,11.6582,0,0,1-3.97461-4.623,15.94335,15.94335,0,0,1-1.38281-7,13.26463,13.26463,0,0,1,1.59864-6.74024,12.30241,12.30241,0,0,1,4.27734-4.40625,19.34672,19.34672,0,0,1,6.13574-2.377,34.49463,34.49463,0,0,1,7.17188-.73438,41.09357,41.09357,0,0,1,4.45019.21582,19.8874,19.8874,0,0,1,3.1543.5625v-1.21a7.1282,7.1282,0,0,0-1.98828-5.27149q-1.98789-1.98633-6.91211-1.9873a44.06628,44.06628,0,0,0-6.48145.47558,27.90077,27.90077,0,0,0-5.53027,1.33887l-1.6416-10.36914q1.122-.34427,2.80859-.73438,1.68448-.38963,3.67188-.6914,1.98769-.30178,4.1914-.51856Q814.44315,148.70412,816.69031,148.70362Zm1.03711,37.67481q1.89981,0,3.6289-.08594a25.0575,25.0575,0,0,0,2.76563-.25879v-9.76465q-.77793-.17283-2.334-.3457a25.96,25.96,0,0,0-2.85156-.17285,25.59713,25.59713,0,0,0-3.41308.21582,8.95134,8.95134,0,0,0-2.8086.82127,4.8087,4.8087,0,0,0-1.90039,1.64162,4.56669,4.56669,0,0,0-.69141,2.5918q-.00009,3.02639,2.03028,4.1914A11.22476,11.22476,0,0,0,817.72742,186.37843Z"/><path class="cls-2" d="M887.46179,149.91261q-3.898,13.13675-8.14258,24.62793-4.24521,11.49318-9.2705,22.29394a50.54013,50.54013,0,0,1-3.63477,6.61035,20.37388,20.37388,0,0,1-3.98144,4.49414,14.05193,14.05193,0,0,1-4.88868,2.5918,22.14469,22.14469,0,0,1-6.35937.82129,26.01092,26.01092,0,0,1-5.583-.56152,25.03287,25.03287,0,0,1-4.19727-1.25293l2.24708-10.28321a22.1146,22.1146,0,0,0,3.54394.9502,19.99575,19.99575,0,0,0,3.28711.25977,7.19562,7.19562,0,0,0,5.31543-1.8584,14.94822,14.94822,0,0,0,3.15625-5.1416q-4.41073-8.63964-8.81934-19.39942a241.1435,241.1435,0,0,1-8.29785-24.15234h13.65332q.86563,3.37061,2.04,7.30273,1.1704,3.93311,2.47363,7.94922,1.29931,4.01806,2.64551,7.82031,1.34619,3.80418,2.56152,6.91309,1.12647-3.1113,2.34278-6.91309,1.21581-3.80127,2.38574-7.82031,1.17041-4.01806,2.25586-7.94922,1.084-3.93163,1.95312-7.30273Z"/><path class="cls-2" d="M907.33679,186.11965a12.84048,12.84048,0,0,0,5.0127-.6914,2.6698,2.6698,0,0,0,1.46875-2.67871,3.28188,3.28188,0,0,0-1.90137-2.72168,36.19394,36.19394,0,0,0-5.78906-2.63575,58.62658,58.62658,0,0,1-5.48731-2.333,16.1154,16.1154,0,0,1-4.1914-2.89453,11.69944,11.69944,0,0,1-2.67871-4.01855,14.854,14.854,0,0,1-.9502-5.61719,12.14743,12.14743,0,0,1,4.752-10.10938q4.752-3.71484,13.04883-3.71582a41.89441,41.89441,0,0,1,7.9502.73438,37.18831,37.18831,0,0,1,6.04883,1.59863L922.373,161.06008a47.63381,47.63381,0,0,0-4.88282-1.38281,26.59592,26.59592,0,0,0-5.91894-.60449q-6.04982,0-6.04883,3.37012a3.4778,3.4778,0,0,0,.25977,1.38281,2.95016,2.95016,0,0,0,1.03613,1.166,14.56065,14.56065,0,0,0,2.11719,1.21582q1.33886.65329,3.41406,1.43652a52.82749,52.82749,0,0,1,6.999,3.09278,16.72906,16.72906,0,0,1,4.36328,3.292,10.17534,10.17534,0,0,1,2.24707,3.92382,17.42005,17.42005,0,0,1,.64844,4.999q0,6.72656-5.05566,10.17578-5.05518,3.44678-14.30078,3.44824a41.09479,41.09479,0,0,1-10.06739-1.03711,40.67112,40.67112,0,0,1-5.57324-1.72851l2.16016-10.45606a42.15018,42.15018,0,0,0,6.74023,2.03125A32.7327,32.7327,0,0,0,907.33679,186.11965Z"/><path class="cls-2" d="M139.97693,136.53945a3.68007,3.68007,0,0,0-.87639-.06663,3.77725,3.77725,0,0,0-1.46066.37926,3.81823,3.81823,0,0,0-1.84812,4.94575l-.02665.03793,8.74142,21.11863a44.61954,44.61954,0,0,0,18.03536-22.65516l-22.526-3.807Zm-35.04978,2.99308a3.81309,3.81309,0,0,0-3.65729-2.96642,3.74745,3.74745,0,0,0-.75135.06664l-.03793-.04613-22.33021,3.79054a44.78865,44.78865,0,0,0,17.979,22.49526l8.65329-20.90953-.06766-.082A3.77535,3.77535,0,0,0,104.92715,139.53253Zm18.70163,8.20022a3.811,3.811,0,0,0-6.7211.0082h-.01845l-10.98112,19.85681a44.72931,44.72931,0,0,0,24.411,1.25566q2.252-.51252,4.39941-1.229l-11.00674-19.8927Zm34.76276-46.12622L141.496,116.72875l.00922.04818a3.81822,3.81822,0,0,0,1.49655,6.555l.02051.09123,21.88434,6.30392a45.3863,45.3863,0,0,0-6.51508-28.11854Zm-31.38941,1.69435a3.81823,3.81823,0,0,0,6.061,2.91108l.06663.0287,18.48738-13.10908A44.94741,44.94741,0,0,0,125.69728,80.6365l1.28436,22.65822Zm-19.578,2.99514a3.81311,3.81311,0,0,0,6.05176-2.92134l.0943-.0451,1.28436-22.69307a45.797,45.797,0,0,0-4.61364.79441,44.55472,44.55472,0,0,0-21.461,11.69452l18.60833,13.19108ZM97.5039,123.44266a3.81311,3.81311,0,0,0,1.49859-6.55607l.01845-.08917-16.9888-15.196a44.54148,44.54148,0,0,0-6.32236,28.19952l21.7767-6.28341Zm16.50089,6.675,6.267,3.01358,6.24857-3.0064,1.55189-6.74672-4.32459-5.40806h-6.95994l-4.33689,5.39985Z"/><path class="cls-2" d="M223.8754,143.40815l-17.858-77.56893a13.94253,13.94253,0,0,0-7.47553-9.30007l-72.286-34.51266a13.92907,13.92907,0,0,0-11.99794,0L41.98639,56.55761a13.93828,13.93828,0,0,0-7.47758,9.299L16.67949,143.42353a13.64813,13.64813,0,0,0-.0041,5.9554,13.844,13.844,0,0,0,.50329,1.761,13.42724,13.42724,0,0,0,1.37661,2.79422c.245.37415.50329.738.78415,1.09064l50.02542,62.19659c.21833.27062.45921.51764.69805.76877a13.75863,13.75863,0,0,0,2.63841,2.18637,14.27194,14.27194,0,0,0,3.95354,1.719,13.63037,13.63037,0,0,0,3.51584.48483h.778l79.4437-.01845a13.31831,13.31831,0,0,0,1.44529-.08507,13.8081,13.8081,0,0,0,2.03877-.38746,14.22035,14.22035,0,0,0,1.41556-.45307c.36183-.13838.72264-.27676,1.07115-.44383a14.2919,14.2919,0,0,0,1.516-.84257,13.63619,13.63619,0,0,0,3.318-2.93671l1.52526-1.8963,48.48274-60.31259a13.51507,13.51507,0,0,0,2.16077-3.87975,14.01391,14.01391,0,0,0,.51251-1.76713,13.61451,13.61451,0,0,0-.00409-5.9544Zm-74.97766,30.16861a14.88194,14.88194,0,0,0,.72059,1.74562,3.39694,3.39694,0,0,0-.33517,2.55232,40.35676,40.35676,0,0,0,3.83564,6.86768,35.9359,35.9359,0,0,1,2.31965,3.4482c.17425.32289.40181.82309.56683,1.16443a4.34612,4.34612,0,1,1-7.821,3.69726c-.165-.33826-.39462-.78927-.53506-1.10908a36.16021,36.16021,0,0,1-1.25568-3.9648,40.28828,40.28828,0,0,0-2.96848-7.27461,3.4184,3.4184,0,0,0-2.20791-1.33971c-.13837-.23885-.6509-1.17777-.9256-1.66362a55.984,55.984,0,0,1-39.92275-.10251l-.97891,1.77432a3.5147,3.5147,0,0,0-1.86451.90818,30.2562,30.2562,0,0,0-3.3498,7.77174,35.772,35.772,0,0,1-1.24848,3.9648c-.13838.31776-.37.76263-.53507,1.09985v.00922l-.00718.00819a4.34406,4.34406,0,1,1-7.80968-3.7065c.163-.34339.38131-.84053.55351-1.1634a36.0565,36.0565,0,0,1,2.31862-3.45741,42.26018,42.26018,0,0,0,3.91561-7.03785,4.29282,4.29282,0,0,0-.38541-2.44673l.78722-1.886a56.29651,56.29651,0,0,1-24.94711-31.14749l-1.885.32085a4.79709,4.79709,0,0,0-2.48876-.87639,40.51247,40.51247,0,0,0-7.5401,2.21917,36.47885,36.47885,0,0,1-3.88178,1.4863c-.31263.08611-.76364.1722-1.12035.25011-.0287.01024-.0533.02255-.082.02972a.61953.61953,0,0,1-.06662.00615,4.342,4.342,0,1,1-1.9209-8.42982l.06252-.01538.03793-.01026c.36183-.08508.82515-.205,1.1552-.26855a36.14682,36.14682,0,0,1,4.15136-.33415,40.374,40.374,0,0,0,7.75331-1.27309,5.98126,5.98126,0,0,0,1.8594-1.87581l1.81122-.52892a55.97977,55.97977,0,0,1,8.82855-39.02586l-1.38685-1.23619a4.80534,4.80534,0,0,0-.86923-2.497,40.34987,40.34987,0,0,0-6.43409-4.52037,36.13289,36.13289,0,0,1-3.58657-2.09721c-.26241-.19578-.61092-.49-.89588-.72162l-.06457-.04509a4.58494,4.58494,0,0,1-1.064-6.37773,4.16779,4.16779,0,0,1,3.44717-1.52524,5.1559,5.1559,0,0,1,3.01563,1.13779c.29418.23062.697.53916.9584.76364a36.13856,36.13856,0,0,1,2.84957,3.02383,40.36971,40.36971,0,0,0,5.8324,5.27069,3.41644,3.41644,0,0,0,2.56974.24908q.77286.56376,1.5601,1.10907a55.64758,55.64758,0,0,1,28.2672-16.1483,56.43032,56.43032,0,0,1,7.821-1.20234l.1025-1.82865a4.7152,4.7152,0,0,0,1.40429-2.23867,40.46381,40.46381,0,0,0-.48176-7.84556,36.35365,36.35365,0,0,1-.59041-4.11444c-.01128-.31469.00614-.7493.01025-1.10806,0-.041-.01025-.081-.01025-.121a4.34816,4.34816,0,1,1,8.65225-.0041c0,.37925.02256.88254.00923,1.23a35.98745,35.98745,0,0,1-.59349,4.11343,40.52381,40.52381,0,0,0-.49,7.8476,3.42757,3.42757,0,0,0,1.41351,2.16282c.01537.31263.06663,1.35611.10455,1.93115A56.69318,56.69318,0,0,1,160.951,86.5212l1.6462-1.17572a4.80754,4.80754,0,0,0,2.62407-.285,40.52154,40.52154,0,0,0,5.8324-5.27685,35.88047,35.88047,0,0,1,2.85676-3.02382c.26547-.22756.66626-.533.95943-.76468a4.34816,4.34816,0,1,1,5.38957,6.76313c-.29008.23474-.67345.56171-.95226.76877a35.9736,35.9736,0,0,1-3.59477,2.09722,40.48326,40.48326,0,0,0-6.43409,4.52037,3.42058,3.42058,0,0,0-.81183,2.44981c-.24088.22141-1.08652.9707-1.53446,1.37662a56.20941,56.20941,0,0,1,9.012,38.93359l1.74664.50843a4.86364,4.86364,0,0,0,1.86555,1.87683,40.45306,40.45306,0,0,0,7.7574,1.27615,36.534,36.534,0,0,1,4.14727.33211c.36387.06663.88972.21219,1.26077.29725a4.342,4.342,0,1,1-1.925,8.42881l-.06253-.0082c-.02871-.00718-.05535-.02255-.08507-.02972-.35672-.07791-.80466-.15581-1.11727-.23779a36.02221,36.02221,0,0,1-3.87974-1.4986,40.46446,40.46446,0,0,0-7.54729-2.21918,3.42056,3.42056,0,0,0-2.42111.89894q-.92253-.17529-1.84915-.3239a56.29435,56.29435,0,0,1-24.93686,31.371Z"/><path class="cls-3" d="M233.30463,145.39771l-19.4827-84.62724a15.20943,15.20943,0,0,0-8.15718-10.14777L126.8043,12.97345a15.19606,15.19606,0,0,0-13.09062,0L34.86039,50.64525a15.20938,15.20938,0,0,0-8.16024,10.14264L7.25128,145.41926A15.03519,15.03519,0,0,0,9.29621,156.8842c.26753.41.55147.8077.859,1.19108l54.5786,67.86192a15.35485,15.35485,0,0,0,11.78678,5.62433l87.524-.0205a15.361,15.361,0,0,0,11.78781-5.61715l54.55913-67.86807a15.0884,15.0884,0,0,0,2.91311-12.656Zm-9.42719,3.96276a14.01783,14.01783,0,0,1-.51047,1.76611,13.51377,13.51377,0,0,1-2.16281,3.87975l-48.48274,60.31054-1.52319,1.89835a13.63814,13.63814,0,0,1-3.32109,2.93671,14.29126,14.29126,0,0,1-1.5109.84257q-.52581.24294-1.07115.44179a14.22537,14.22537,0,0,1-1.4176.45511,13.81,13.81,0,0,1-2.03878.38847,13.30994,13.30994,0,0,1-1.44529.08406l-79.44371.01845h-.779a13.63028,13.63028,0,0,1-3.51482-.48381,14.2736,14.2736,0,0,1-3.95148-1.72A13.76,13.76,0,0,1,70.064,217.9932c-.23883-.25216-.47971-.49919-.697-.76876L19.34046,155.02687q-.41821-.52687-.78414-1.09269A13.42959,13.42959,0,0,1,17.1797,151.14a13.844,13.844,0,0,1-.50328-1.762,13.64846,13.64846,0,0,1,.0041-5.9544l17.82932-77.569a13.93833,13.93833,0,0,1,7.47757-9.297L114.26,22.02857a13.92907,13.92907,0,0,1,11.998,0l72.28389,34.51266a13.94242,13.94242,0,0,1,7.47552,9.30007l17.858,77.56893a13.61427,13.61427,0,0,1,.002,5.95234Z"/><path class="cls-3" d="M192.72072,137.19547c-.369-.08508-.89586-.23063-1.25771-.29725a36.5356,36.5356,0,0,0-4.14728-.33417,40.45168,40.45168,0,0,1-7.75946-1.27309,4.86354,4.86354,0,0,1-1.86555-1.87785l-1.74664-.50842a56.20934,56.20934,0,0,0-9.01-38.9336c.44692-.40593,1.29358-1.15522,1.53241-1.37559a3.4216,3.4216,0,0,1,.81183-2.44982,40.48438,40.48438,0,0,1,6.4341-4.52036,35.97761,35.97761,0,0,0,3.59477-2.0972c.27881-.20707.66013-.53508.95226-.76877a4.34817,4.34817,0,1,0-5.38755-6.76518c-.29519.23268-.697.53814-.95942.76569a35.88155,35.88155,0,0,0-2.8588,3.02383,40.52317,40.52317,0,0,1-5.8324,5.27684,4.80742,4.80742,0,0,1-2.62407.285L160.951,86.52124A56.69326,56.69326,0,0,0,125.04227,69.1706c-.04-.575-.08918-1.61646-.10456-1.93115a3.42762,3.42762,0,0,1-1.41146-2.1628,40.52387,40.52387,0,0,1,.49-7.84761,35.98975,35.98975,0,0,0,.58939-4.11241c.01333-.34852-.00718-.85489-.00718-1.23106a4.34816,4.34816,0,1,0-8.65225.0041c0,.041.00923.08.01026.121-.0041.35877-.02153.79337-.01026,1.107a36.36487,36.36487,0,0,0,.59042,4.11548,40.46376,40.46376,0,0,1,.48176,7.84556,4.71608,4.71608,0,0,1-1.40429,2.2366l-.1025,1.83071a56.42887,56.42887,0,0,0-7.821,1.20236A55.6475,55.6475,0,0,0,79.4265,86.49661q-.78927-.54429-1.5642-1.10908a3.41645,3.41645,0,0,1-2.56871-.24908,40.368,40.368,0,0,1-5.8324-5.26966,36.13648,36.13648,0,0,0-2.8465-3.02382c-.26344-.22551-.66626-.533-.96148-.76776a5.156,5.156,0,0,0-3.01563-1.13778,4.16778,4.16778,0,0,0-3.44717,1.52627,4.585,4.585,0,0,0,1.064,6.37772l.06663.04715c.28291.23166.63141.52789.89383.71958a36.13855,36.13855,0,0,0,3.58657,2.09925,40.35194,40.35194,0,0,1,6.43306,4.52242,4.80728,4.80728,0,0,1,.87025,2.49492L73.48954,93.965A55.97978,55.97978,0,0,0,64.663,132.99082l-1.81122.52687a5.98093,5.98093,0,0,1-1.8594,1.87273,40.37431,40.37431,0,0,1-7.75433,1.27821,36.14962,36.14962,0,0,0-4.15034.33417c-.33211.0615-.79337.17836-1.1552.26856l-.03793.00819-.0615.01845a4.342,4.342,0,1,0,1.92193,8.42982l.06457-.01024c.0287-.00614.0533-.0205.082-.02561.35671-.081.80567-.16709,1.11933-.25217a36.4823,36.4823,0,0,0,3.88075-1.48732,40.51679,40.51679,0,0,1,7.54215-2.21918,4.79707,4.79707,0,0,1,2.48671.87843l1.886-.32287a56.2966,56.2966,0,0,0,24.94917,31.14749l-.78824,1.886a4.29291,4.29291,0,0,1,.38643,2.44673,42.2595,42.2595,0,0,1-3.91561,7.03579,36.06036,36.06036,0,0,0-2.31964,3.45639c-.1722.32594-.39053.82513-.55556,1.16647a4.34406,4.34406,0,1,0,7.81173,3.7065l.00718-.0082v-.01024c.164-.33825.39669-.7821.53508-1.09884a35.77622,35.77622,0,0,0,1.24848-3.9648,30.2556,30.2556,0,0,1,3.34979-7.77176,3.516,3.516,0,0,1,1.86452-.91022l.981-1.77328a55.98394,55.98394,0,0,0,39.9207.10147c.2747.49.78723,1.42683.92252,1.66362a3.41844,3.41844,0,0,1,2.20892,1.34279,40.28933,40.28933,0,0,1,2.97053,7.27357,36.15663,36.15663,0,0,0,1.25567,3.9648c.14042.31981.369.76981.53506,1.10909a4.34611,4.34611,0,1,0,7.821-3.69727c-.165-.34132-.39258-.84052-.56377-1.16443a35.9383,35.9383,0,0,0-2.31964-3.4482,40.3574,40.3574,0,0,1-3.83565-6.86767,3.397,3.397,0,0,1,.33211-2.55232,14.88093,14.88093,0,0,1-.72059-1.74562,56.29458,56.29458,0,0,0,24.93685-31.371c.55968.08919,1.53446.25933,1.8512.3239a3.4205,3.4205,0,0,1,2.41907-.899A40.46372,40.46372,0,0,1,185.649,143.85a36.01809,36.01809,0,0,0,3.8828,1.49859c.31262.082.75851.15991,1.11726.23885.02974.00819.05637.02151.08507.0287l.06149.00923a4.342,4.342,0,1,0,1.925-8.42982ZM151.61713,93.13262l-18.48842,13.107-.06458-.02973a3.81618,3.81618,0,0,1-6.061-2.91l-.0205-.00923-1.28436-22.6572A44.94751,44.94751,0,0,1,151.6161,93.13263ZM116.78876,117.967h6.95789l4.32562,5.408-1.55088,6.74571-6.24856,3.0064-6.267-3.01359-1.55394-6.74775Zm-6.54583-36.54017a45.79136,45.79136,0,0,1,4.6157-.79337l-1.28641,22.691-.0943.0451a3.8131,3.8131,0,0,1-6.05176,2.92337l-.03588.0205L88.782,93.11929A44.55461,44.55461,0,0,1,110.24293,81.42681ZM82.03418,101.60038l16.9888,15.194-.01845.09328a3.8131,3.8131,0,0,1-1.49859,6.554l-.01741.0738-21.77671,6.28445a44.54159,44.54159,0,0,1,6.32236-28.19851Zm22.74638,40.3656-8.65225,20.90645a44.78961,44.78961,0,0,1-17.97487-22.4973l22.32817-3.79156.03792.04919a3.74659,3.74659,0,0,1,.74828-.06663,3.81309,3.81309,0,0,1,3.44819,5.31475Zm25.53958,26.88645a44.72908,44.72908,0,0,1-24.411-1.25463L116.89023,147.741h.01845a3.81822,3.81822,0,0,1,6.7211-.00614h.082l11.00879,19.88964q-2.14332.71549-4.40044,1.229Zm14.1874-5.89595-8.74144-21.1207.02666-.03793a3.81822,3.81822,0,0,1,1.84811-4.9437,3.77784,3.77784,0,0,1,1.46066-.37927,3.67945,3.67945,0,0,1,.87639.06457l.03793-.04713,22.527,3.807a44.61951,44.61951,0,0,1-18.03536,22.65821Zm20.40112-33.23035-21.88638-6.30392-.02051-.09224a3.81824,3.81824,0,0,1-1.49655-6.55607l-.0082-.04409,16.89449-15.12017a45.38709,45.38709,0,0,1,6.51608,28.11649Z"/></svg>